<svg width="1920" height="555" viewBox="0 0 1920 555" fill="none" xmlns="http://www.w3.org/2000/svg">
<path fill-rule="evenodd" clip-rule="evenodd" d="M1167.68 544.971C1171.29 551.011 1177.81 554.709 1184.84 554.709L1601.81 554.71C1601.83 554.71 1601.85 554.709 1601.87 554.709L1993.5 554.709C2000.54 554.709 2007.06 551.011 2010.67 544.971L2164.51 287.617C2168.29 281.298 2168.29 273.413 2164.51 267.093L2010.67 9.73921C2007.06 3.69929 2000.54 0.00116736 1993.5 0.00116644L1596.53 0.00111438C1596.51 0.00111438 1596.49 0.00123645 1596.46 0.00123644L1184.84 0.00118246C1177.81 0.00118154 1171.29 3.6993 1167.68 9.73922L1013.83 267.093C1010.06 273.413 1010.06 281.298 1013.83 287.617L1167.68 544.971Z" fill="#EBEBEB"/>
<path fill-rule="evenodd" clip-rule="evenodd" d="M-9.32393 544.971C-5.71332 551.011 0.805786 554.709 7.84267 554.709L424.812 554.71C424.831 554.71 424.85 554.709 424.869 554.709L816.502 554.709C823.539 554.709 830.058 551.011 833.668 544.971L987.511 287.617C991.289 281.298 991.289 273.413 987.511 267.093L833.668 9.73921C830.058 3.69929 823.539 0.00116736 816.502 0.00116644L419.533 0.00111438C419.509 0.00111438 419.486 0.00123645 419.462 0.00123644L7.84275 0.00118246C0.805874 0.00118154 -5.71325 3.6993 -9.32386 9.73922L-163.167 267.093C-166.944 273.413 -166.944 281.298 -163.167 287.617L-9.32393 544.971Z" fill="#EBEBEB"/>
<path fill-rule="evenodd" clip-rule="evenodd" d="M667.382 543.483C670.735 550.352 677.711 554.709 685.355 554.709L1019 554.709C1019.51 554.709 1020.01 554.69 1020.51 554.652C1021.01 554.69 1021.51 554.708 1022.02 554.708L1143.33 554.708C1150.97 554.708 1157.95 550.352 1161.3 543.483L1286.94 286.129C1289.65 280.591 1289.65 274.117 1286.94 268.58L1161.3 11.2258C1157.95 4.35691 1150.97 0.000159182 1143.33 0.000157955L1022.02 0.000138478C1021.51 0.000138396 1021.01 0.0191202 1020.51 0.0564126C1020.01 0.0192422 1019.51 0.000260145 1019 0.000260063L685.355 0.000206491C677.711 0.000205263 670.736 4.35695 667.382 11.2258L541.738 268.58C539.035 274.117 539.035 280.591 541.738 286.129L667.382 543.483Z" fill="white"/>
<path fill-rule="evenodd" clip-rule="evenodd" d="M412.575 543.483C415.929 550.352 422.904 554.709 430.548 554.709L764.195 554.709C764.703 554.709 765.207 554.69 765.706 554.652C766.204 554.69 766.708 554.708 767.216 554.708L888.52 554.708C896.164 554.708 903.139 550.352 906.493 543.483L1032.14 286.129C1034.84 280.591 1034.84 274.117 1032.14 268.58L906.493 11.2258C903.139 4.35691 896.164 0.000159182 888.52 0.000157955L767.216 0.000138478C766.707 0.000138396 766.203 0.0191202 765.705 0.0564126C765.206 0.0192422 764.703 0.000260145 764.195 0.000260063L430.548 0.000206491C422.904 0.000205263 415.929 4.35695 412.575 11.2258L286.932 268.58C284.228 274.117 284.228 280.591 286.932 286.129L412.575 543.483Z" fill="white"/>
<path fill-rule="evenodd" clip-rule="evenodd" d="M1012.85 543.484C1016.2 550.353 1023.18 554.709 1030.82 554.709L1364.47 554.71C1364.98 554.71 1365.48 554.691 1365.98 554.653C1366.48 554.69 1366.98 554.709 1367.49 554.709L1488.8 554.709C1496.44 554.709 1503.41 550.353 1506.77 543.484L1632.41 286.13C1635.12 280.592 1635.12 274.118 1632.41 268.581L1501.29 0.00113652L1367.49 0.00111504C1366.98 0.00111496 1366.48 0.0200968 1365.98 0.0573892C1365.48 0.0202187 1364.98 0.00123671 1364.47 0.00123663L1030.82 0.00118305C1023.18 0.00118183 1016.2 4.35793 1012.85 11.2268L887.207 268.581C884.504 274.118 884.504 280.592 887.207 286.13L1012.85 543.484Z" fill="white"/>
</svg>
