<svg width="1920" height="555" viewBox="0 0 1920 555" fill="none" xmlns="http://www.w3.org/2000/svg">
<path fill-rule="evenodd" clip-rule="evenodd" d="M1167.68 544.97C1171.29 551.01 1177.81 554.709 1184.84 554.709L1601.81 554.709C1601.83 554.709 1601.85 554.709 1601.87 554.708L1993.5 554.708C2000.54 554.708 2007.06 551.01 2010.67 544.97L2164.51 287.616C2168.29 281.297 2168.29 273.412 2164.51 267.092L2010.67 9.73823C2007.06 3.69825 2000.54 0.000190797 1993.5 0.000189875L1596.53 0.000137819C1596.51 0.000137815 1596.49 0.000259883 1596.46 0.00025988L1184.84 0.000205902C1177.81 0.000204979 1171.29 3.69826 1167.68 9.73824L1013.83 267.092C1010.06 273.412 1010.06 281.297 1013.83 287.616L1167.68 544.97Z" fill="#EBEBEB"/>
<path fill-rule="evenodd" clip-rule="evenodd" d="M-9.32393 544.97C-5.71332 551.01 0.805786 554.709 7.84267 554.709L424.812 554.709C424.831 554.709 424.85 554.709 424.869 554.708L816.502 554.708C823.539 554.708 830.058 551.01 833.668 544.97L987.511 287.616C991.289 281.297 991.289 273.412 987.511 267.092L833.668 9.73823C830.058 3.69825 823.539 0.000190797 816.502 0.000189875L419.533 0.000137819C419.509 0.000137815 419.486 0.000259883 419.462 0.00025988L7.84275 0.000205902C0.805874 0.000204979 -5.71325 3.69832 -9.32386 9.73824L-163.167 267.092C-166.944 273.412 -166.944 281.297 -163.167 287.616L-9.32393 544.97Z" fill="#EBEBEB"/>
<path fill-rule="evenodd" clip-rule="evenodd" d="M602.67 544.97C606.281 551.01 612.8 554.708 619.837 554.708L1036.81 554.708C1036.82 554.708 1036.84 554.708 1036.86 554.708L1188.5 554.708C1195.53 554.708 1202.05 551.01 1205.66 544.97L1359.51 287.616C1363.28 281.296 1363.28 273.412 1359.51 267.092L1205.66 9.73814C1202.05 3.69816 1195.53 9.82901e-05 1188.5 9.73673e-05L1036.81 0.000138511L1031.53 7.67833e-05C1031.51 7.67812e-05 1031.49 0.000137814 1031.48 0.000137812L619.837 8.38319e-05C612.8 8.29091e-05 606.281 3.6982 602.67 9.73812L448.828 267.092C445.05 273.412 445.05 281.296 448.828 287.616L602.67 544.97Z" fill="white"/>
<path fill-rule="evenodd" clip-rule="evenodd" d="M290.676 544.97C294.287 551.01 300.806 554.708 307.843 554.708L724.812 554.708C724.83 554.708 724.849 554.708 724.868 554.708L876.502 554.708C883.539 554.708 890.058 551.01 893.668 544.97L1047.51 287.616C1051.29 281.296 1051.29 273.412 1047.51 267.092L893.668 9.73814C890.058 3.69816 883.539 9.82901e-05 876.502 9.73673e-05L724.812 0.000138511L719.533 7.67833e-05C719.516 7.67812e-05 719.5 0.000137814 719.483 0.000137812L307.843 8.38319e-05C300.806 8.29091e-05 294.287 3.6982 290.676 9.73812L136.833 267.092C133.056 273.412 133.056 281.296 136.833 287.616L290.676 544.97Z" fill="white"/>
<path fill-rule="evenodd" clip-rule="evenodd" d="M1025.68 544.971C1029.29 551.011 1035.81 554.709 1042.84 554.709L1459.81 554.709C1459.83 554.709 1459.85 554.709 1459.87 554.709L1611.5 554.709C1618.54 554.709 1625.06 551.011 1628.67 544.971L1782.51 287.617C1786.29 281.297 1786.29 273.413 1782.51 267.093L1622.85 0.000526101L1454.53 0.000504029C1454.51 0.000504026 1454.49 0.000626094 1454.46 0.00062609L1042.84 0.000572113C1035.81 0.00057119 1029.29 3.69869 1025.68 9.73861L871.833 267.093C868.056 273.413 868.056 281.297 871.833 287.617L1025.68 544.971Z" fill="white"/>
</svg>
