<?xml version="1.0" encoding="utf-8"?>
<!-- Generator: Adobe Illustrator 22.0.1, SVG Export Plug-In . SVG Version: 6.00 Build 0)  -->
<svg version="1.1" id="Слой_1" xmlns="http://www.w3.org/2000/svg" xmlns:xlink="http://www.w3.org/1999/xlink" x="0px" y="0px"
	 width="554.7px" height="1679px" viewBox="0 0 554.7 1679" style="enable-background:new 0 0 554.7 1679;" xml:space="preserve">
<style type="text/css">
	.st0{fill:#EBEBEB;}
	.st1{fill:#FFFFFF;}
</style>
<path class="st0" d="M9.7,1025.7c-6,3.6-9.7,10.1-9.7,17.2v417c0,0,0,0,0,0.1v198.8c0,11,8.9,20,20,20l257.4,0.3l277.4-0.2v-224.3
	c0,0,0,0,0-0.1v-411.6c0-7-3.7-13.5-9.7-17.2L287.6,871.8c-6.3-3.8-14.2-3.8-20.5,0L9.7,1025.7z"/>
<path class="st0" d="M9.7-89.3C3.7-85.7,0-79.2,0-72.2v417c0,0,0,0,0,0.1v391.6c0,7,3.7,13.6,9.7,17.2l257.4,153.8
	c6.3,3.8,14.2,3.8,20.5,0L545,753.6c6-3.6,9.7-10.1,9.7-17.2v-397c0,0,0,0,0-0.1V-72.2c0-7-3.7-13.6-9.7-17.2L287.6-243.2
	c-6.3-3.8-14.2-3.8-20.5,0L9.7-89.3z"/>
<path class="st1" d="M9.7,522.6c-6,3.6-9.7,10.1-9.7,17.2v417c0,0,0,0,0,0v151.6c0,7,3.7,13.6,9.7,17.2l257.4,153.8
	c6.3,3.8,14.2,3.8,20.5,0L545,1125.6c6-3.6,9.7-10.1,9.7-17.2V956.8v-5.3c0,0,0,0,0-0.1V539.8c0-7-3.7-13.6-9.7-17.2L287.6,368.8
	c-6.3-3.8-14.2-3.8-20.5,0L9.7,522.6z"/>
<path class="st1" d="M9.7,210.7c-6,3.6-9.7,10.1-9.7,17.2v417c0,0,0,0,0,0.1v151.6c0,7,3.7,13.6,9.7,17.2l257.4,153.8
	c6.3,3.8,14.2,3.8,20.5,0L545,813.6c6-3.6,9.7-10.1,9.7-17.2V644.8v-5.3c0,0,0,0,0-0.1V227.8c0-7-3.7-13.6-9.7-17.2L287.6,56.8
	c-6.3-3.8-14.2-3.8-20.5,0L9.7,210.7z"/>
<path class="st1" d="M9.7,883.7c-6,3.6-9.7,10.1-9.7,17.2l0,417c0,0,0,0,0,0.1v151.6c0,7,3.7,13.6,9.7,17.2l257.4,153.8
	c6.3,3.8,14.2,3.8,20.5,0l267.1-159.7v-168.3c0,0,0,0,0-0.1V900.8c0-7-3.7-13.5-9.7-17.2L287.6,729.8c-6.3-3.8-14.2-3.8-20.5,0
	L9.7,883.7z"/>
</svg>
