<svg width="110" height="98" viewBox="0 0 110 98" fill="none" xmlns="http://www.w3.org/2000/svg">
<path d="M108.4 96.5V97.5H109.4V96.5H108.4ZM108.4 50.6H109.4V49.6H108.4V50.6ZM88.3 50.6L87.3008 50.5592L87.2584 51.6H88.3V50.6ZM108.4 21.2L108.687 22.1578L109.4 21.944V21.2H108.4ZM108.4 1.39999H109.4V0.215652L108.232 0.414139L108.4 1.39999ZM65.5 96.5H64.5V97.5H65.5V96.5ZM44.8 96.5V97.5H45.8V96.5H44.8ZM44.8 50.6H45.8V49.6H44.8V50.6ZM24.7 50.6L23.7008 50.5592L23.6584 51.6H24.7V50.6ZM44.8 21.2L45.0873 22.1578L45.8 21.944V21.2H44.8ZM44.8 1.39999H45.8V0.215652L44.6324 0.414139L44.8 1.39999ZM1.9 96.5H0.900001V97.5H1.9V96.5ZM109.4 96.5V50.6H107.4V96.5H109.4ZM108.4 49.6H88.3V51.6H108.4V49.6ZM89.2992 50.6408C89.5961 43.3656 90.8561 37.3408 93.7994 32.6027C96.7228 27.8968 101.376 24.3514 108.687 22.1578L108.113 20.2422C100.424 22.5486 95.3272 26.3532 92.1006 31.5473C88.8939 36.7092 87.6039 43.1344 87.3008 50.5592L89.2992 50.6408ZM109.4 21.2V1.39999H107.4V21.2H109.4ZM108.232 0.414139C92.9811 3.00685 82.0123 10.3484 74.8755 20.7466C67.755 31.1212 64.5 44.4613 64.5 59H66.5C66.5 44.7387 69.695 31.8288 76.5245 21.8784C83.3377 11.9516 93.8189 4.89313 108.568 2.38585L108.232 0.414139ZM64.5 59V96.5H66.5V59H64.5ZM65.5 97.5H108.4V95.5H65.5V97.5ZM45.8 96.5V50.6H43.8V96.5H45.8ZM44.8 49.6H24.7V51.6H44.8V49.6ZM25.6992 50.6408C25.9961 43.3656 27.2561 37.3408 30.1994 32.6027C33.1228 27.8968 37.7755 24.3514 45.0873 22.1578L44.5127 20.2422C36.8245 22.5486 31.7272 26.3532 28.5006 31.5473C25.2939 36.7092 24.0039 43.1344 23.7008 50.5592L25.6992 50.6408ZM45.8 21.2V1.39999H43.8V21.2H45.8ZM44.6324 0.414139C29.3811 3.00685 18.4123 10.3484 11.2755 20.7466C4.15496 31.1212 0.900001 44.4613 0.900001 59H2.9C2.9 44.7387 6.09504 31.8288 12.9245 21.8784C19.7377 11.9516 30.2189 4.89313 44.9676 2.38585L44.6324 0.414139ZM0.900001 59V96.5H2.9V59H0.900001ZM1.9 97.5H44.8V95.5H1.9V97.5Z" fill="#B1104E"/>
</svg>
