<svg width="22" height="22" viewBox="0 0 22 22" fill="none" xmlns="http://www.w3.org/2000/svg">
<g clip-path="url(#fbSvgf)">
<path d="M13.6608 21.6688C13.6608 21.6274 13.6608 21.5833 13.6608 21.5392C13.6608 19.1952 13.6608 16.8513 13.6581 14.5073C13.6581 14.386 13.6801 14.3474 13.8122 14.3474C14.575 14.3556 15.3349 14.3474 16.0976 14.3556C16.227 14.3556 16.2656 14.3226 16.2821 14.1957C16.3922 13.294 16.5079 12.3922 16.629 11.4933C16.6428 11.383 16.6208 11.3526 16.5079 11.3554C15.6185 11.3609 14.7264 11.3526 13.837 11.3609C13.6911 11.3609 13.6636 11.3195 13.6691 11.1844C13.6856 10.5088 13.6498 9.83321 13.6911 9.1576C13.7352 8.43787 14.1151 8.05457 14.8393 8.00769C15.4203 7.96908 16.004 7.99666 16.5877 7.9939C16.7034 7.9939 16.7309 7.96632 16.7309 7.85051C16.7254 7.04529 16.7281 6.24283 16.7281 5.43762C16.7281 5.36592 16.7336 5.31353 16.6263 5.3025C15.8581 5.23631 15.0898 5.18116 14.3189 5.20047C13.4681 5.21977 12.6668 5.41831 11.9729 5.94226C11.2626 6.47998 10.8688 7.2135 10.6926 8.07387C10.6127 8.46269 10.5852 8.85427 10.5852 9.25136C10.5852 9.90491 10.5825 10.5557 10.588 11.2092C10.588 11.3278 10.5632 11.3637 10.4393 11.3637C9.67658 11.3582 8.91663 11.3637 8.15392 11.3582C8.02727 11.3582 8.00524 11.394 8.00799 11.5126C8.0135 12.4005 8.01074 13.2857 8.01074 14.1736C8.01074 14.3584 8.01074 14.3584 8.20073 14.3584C8.94967 14.3584 9.69585 14.3612 10.4448 14.3556C10.5604 14.3556 10.588 14.3887 10.588 14.5018C10.5852 16.9616 10.5852 19.4186 10.588 21.8783C10.588 21.9776 10.5687 22.0079 10.4613 21.9997C7.87858 21.859 5.60974 20.938 3.67958 19.22C1.85129 17.5903 0.683835 15.558 0.212997 13.1533C-0.593762 9.0473 0.945412 4.89162 4.26606 2.30776C5.67583 1.213 7.25906 0.507055 9.00749 0.18166C10.0263 -0.00585549 11.0561 -0.0499769 12.0886 0.057569C14.8696 0.349873 17.2183 1.52736 19.1126 3.57901C20.5775 5.16462 21.5026 7.03426 21.8413 9.17139C22.3755 12.5329 21.5522 15.5387 19.3659 18.1446C17.8791 19.9177 15.9847 21.0759 13.7489 21.666C13.7241 21.6715 13.6994 21.6881 13.6608 21.6688Z" fill="#020202"/>
</g>
<defs>
<clipPath id="fbSvgf">
<rect width="22" height="22" fill="white"/>
</clipPath>
</defs>
</svg>
