<svg width="22" height="22" viewBox="0 0 22 22" fill="none" xmlns="http://www.w3.org/2000/svg">
<circle cx="11" cy="11" r="11" fill="#090909"/>
<path d="M13.5292 5.4367H9.80359C9.80359 5.19775 9.61652 5 9.39049 5H8.74357C8.51754 5 8.33048 5.19775 8.33048 5.4367V5.44494C7.03663 5.51086 6 6.64794 6 8.04045V13.388C6 14.83 7.10678 16 8.47077 16H13.5292C14.8932 16 16 14.83 16 13.388V8.04045C16 6.5985 14.8932 5.4367 13.5292 5.4367ZM13.6695 7.16704C13.9657 7.16704 14.2073 7.42247 14.2073 7.73558C14.2073 8.04869 13.9657 8.30412 13.6695 8.30412C13.3733 8.30412 13.1317 8.04869 13.1317 7.73558C13.1317 7.42247 13.3733 7.16704 13.6695 7.16704ZM10.9961 8.56779C12.1185 8.56779 13.0304 9.53184 13.0304 10.7184C13.0304 11.9049 12.1185 12.8607 10.9961 12.8607C9.87373 12.8607 8.96181 11.8966 8.96181 10.7101C8.96181 9.5236 9.88153 8.56779 10.9961 8.56779ZM15.2985 13.388C15.2985 14.418 14.5035 15.2584 13.5292 15.2584H8.47077C7.49649 15.2584 6.70148 14.418 6.70148 13.388V11.0891H8.2915C8.46298 12.5064 9.60873 13.6105 10.9961 13.6105C12.3835 13.6105 13.5292 12.5064 13.7007 11.0891H15.2907V13.388H15.2985Z" fill="white"/>
</svg>
