<svg width="22" height="22" viewBox="0 0 22 22" fill="none" xmlns="http://www.w3.org/2000/svg">
<circle cx="11" cy="11" r="11" fill="#090909"/>
<g clip-path="url(#okSvg)">
<path d="M8.32818 17.0004C8.31518 16.975 8.28788 16.9788 8.26708 16.9737C7.96679 16.8912 7.5807 16.5205 7.6184 16.1104C7.6366 15.9124 7.7159 15.7461 7.8602 15.6052C8.67137 14.8142 9.48125 14.0221 10.2911 13.2311C10.3093 13.2134 10.3327 13.2007 10.3431 13.1664C10.2365 13.1537 10.1325 13.141 10.0285 13.127C9.49165 13.0509 8.96387 12.9353 8.46598 12.7183C8.03699 12.5316 7.6522 12.2777 7.29991 11.9756C7.18291 11.8753 7.08801 11.7572 7.03472 11.6125C6.97232 11.4424 6.99832 11.2761 7.06202 11.111C7.16601 10.8393 7.34281 10.64 7.6405 10.5689C7.89269 10.5093 8.12409 10.5829 8.34118 10.706C8.48028 10.7848 8.59988 10.8901 8.73507 10.9739C9.07696 11.1859 9.45006 11.3205 9.84135 11.4144C10.2144 11.5046 10.594 11.5579 10.9775 11.5642C11.2505 11.5681 11.5222 11.5351 11.7913 11.4893C12.2593 11.4094 12.7091 11.2799 13.1277 11.0552C13.2759 10.9752 13.4098 10.8736 13.5463 10.7784C13.7061 10.6667 13.879 10.5816 14.0779 10.5588C14.4315 10.5169 14.7435 10.6883 14.8917 11.0095C14.9463 11.1288 14.9905 11.2507 14.997 11.3852C15.0048 11.582 14.9242 11.7382 14.7968 11.8778C14.5953 12.0987 14.3418 12.2549 14.0948 12.4174C13.545 12.7792 12.9275 12.9607 12.284 13.0775C12.0994 13.1105 11.9135 13.1397 11.725 13.1575C11.7107 13.1588 11.6873 13.1613 11.6834 13.1702C11.6743 13.1918 11.699 13.2019 11.712 13.2146C12.0175 13.5142 12.3243 13.8139 12.6298 14.1122C13.1394 14.6099 13.6516 15.1075 14.1598 15.6064C14.49 15.9314 14.4835 16.3847 14.1507 16.7211C14.0194 16.8531 13.8738 16.9572 13.6827 16.989C13.6775 16.9902 13.6736 16.9966 13.6697 17.0004C13.5827 17.0004 13.4969 17.0004 13.4098 17.0004C13.4033 16.9966 13.3955 16.9902 13.389 16.989C13.2265 16.9572 13.0913 16.8798 12.9743 16.7655C12.3347 16.1396 11.6951 15.5163 11.0568 14.8904C11.0217 14.8561 11.0035 14.8498 10.9658 14.8879C10.4159 15.4274 9.86474 15.9657 9.31486 16.504C9.23036 16.5865 9.14456 16.6665 9.06266 16.7516C8.93917 16.8798 8.78447 16.9521 8.61418 17.0004C8.51798 17.0004 8.42308 17.0004 8.32818 17.0004Z" fill="white"/>
<path d="M11.1881 4C11.1998 4.01904 11.2193 4.01143 11.2349 4.0127C11.6704 4.04063 12.0864 4.146 12.475 4.33516C13.2368 4.70713 13.7867 5.27588 14.1169 6.04521C14.2976 6.4667 14.3795 6.90723 14.3678 7.36299C14.347 8.15771 14.0753 8.86103 13.5358 9.45771C12.9157 10.1458 12.1345 10.5241 11.1985 10.5762C10.2482 10.6295 9.41622 10.3362 8.71424 9.70654C8.13445 9.18857 7.77956 8.54365 7.67297 7.78447C7.51957 6.68633 7.83936 5.7291 8.64924 4.94453C9.23683 4.37324 9.95571 4.06982 10.7825 4.01143C10.7968 4.01016 10.8137 4.0165 10.8228 4C10.945 4 11.0659 4 11.1881 4ZM12.6544 7.29824C12.657 6.42607 11.9421 5.67832 10.9996 5.67959C10.0714 5.68086 9.35512 6.40449 9.34862 7.28174C9.34212 8.17041 10.0818 8.89785 10.9671 8.91055C11.8758 8.92451 12.6531 8.2085 12.6544 7.29824Z" fill="white"/>
</g>
<defs>
<clipPath id="okSvg">
<rect width="8" height="13" fill="white" transform="translate(7 4)"/>
</clipPath>
</defs>
</svg>
