<svg width="22" height="22" viewBox="0 0 22 22" fill="none" xmlns="http://www.w3.org/2000/svg">
<path d="M10.9996 0C4.93859 0 0 4.93878 0 11C0 17.0612 4.93859 22 10.9996 22C17.0606 22 21.9992 17.0612 21.9992 11C22.074 4.93878 17.1354 0 10.9996 0ZM16.0878 14.966H14.8158C14.3668 14.966 14.2171 14.5918 13.3192 13.6939C12.5709 12.9456 12.2716 12.8707 12.0472 12.8707C11.8227 12.8707 11.7479 12.9456 11.7479 13.3197V14.4422C11.7479 14.7415 11.673 14.966 10.8499 14.966C9.50304 14.966 8.00649 14.1429 6.95891 12.6463C5.38754 10.4762 4.93858 8.7551 4.93858 8.45578C4.93858 8.23129 5.01341 8.08163 5.38755 8.08163H6.65961C6.95892 8.08163 7.10857 8.23129 7.25823 8.60544C7.85684 10.4014 8.90442 11.9728 9.35339 11.9728C9.50304 11.9728 9.57786 11.898 9.57786 11.5238V9.65306C9.50303 8.82993 9.05407 8.7551 9.05407 8.45578C9.05407 8.30612 9.20373 8.15646 9.35339 8.15646H11.3737C11.673 8.15646 11.7479 8.30612 11.7479 8.60544V11.0748C11.7479 11.3741 11.8975 11.449 11.9723 11.449C12.122 11.449 12.2716 11.3741 12.5709 11.0748C13.4689 10.0272 14.1423 8.45578 14.1423 8.45578C14.2171 8.23129 14.3668 8.08163 14.6661 8.08163H15.9382C16.3123 8.08163 16.3871 8.30612 16.3123 8.53061C16.1626 9.27891 14.5913 11.449 14.5913 11.449C14.4416 11.6735 14.3668 11.7483 14.5913 12.0476C14.7409 12.2721 15.1899 12.6463 15.4892 12.9456C16.013 13.5442 16.462 14.068 16.5368 14.4422C16.6116 14.8163 16.462 14.966 16.0878 14.966Z" fill="#090909"/>
</svg>
