<svg width="29" height="23" viewBox="0 0 29 23" fill="none" xmlns="http://www.w3.org/2000/svg">
<path d="M4.60213 17.3925C4.65982 17.377 4.69018 17.3243 4.72662 17.2871C5.9017 16.0899 7.07678 14.8928 8.24579 13.6895C8.43101 13.5003 8.63445 13.4134 8.89254 13.4197C9.26602 13.429 9.64253 13.4165 10.016 13.4228C10.3682 13.4321 10.6294 13.6802 10.6688 14.0306C10.7053 14.347 10.5049 14.654 10.1921 14.7501C10.0889 14.7812 9.9826 14.7781 9.87633 14.7812C9.60305 14.7874 9.30245 14.7005 9.06865 14.8122C8.84092 14.9207 8.67696 15.1781 8.4887 15.3704C7.1284 16.7598 5.7681 18.1492 4.4078 19.5356C4.02825 19.9232 3.43312 19.7775 3.27826 19.2657C3.25397 19.1882 3.25701 19.1138 3.25701 19.0362C3.25701 17.6778 3.25397 16.3163 3.26004 14.9579C3.26004 14.8215 3.23272 14.7718 3.08697 14.775C2.68617 14.7812 2.2884 14.7843 1.8876 14.7656C1.17405 14.7346 0.527295 14.0895 0.460494 13.3607C0.454422 13.1808 0.445312 13.001 0.445312 12.8211C0.445312 9.13045 0.445312 5.43981 0.445312 1.74918C0.445312 0.936615 0.830934 0.33805 1.51412 0.0868385C1.69327 0.0217096 1.87545 0 2.06371 0C8.32777 0 14.5918 0 20.8559 0C21.029 0 21.199 0.0186082 21.363 0.0713316C22.0006 0.272921 22.4561 0.899399 22.4561 1.5817C22.4561 3.06416 22.4561 4.54972 22.4561 6.03217C22.4561 6.42605 22.1676 6.72998 21.7972 6.73309C21.4267 6.73619 21.1353 6.43225 21.1353 6.03838C21.1322 4.61795 21.1353 3.19442 21.1353 1.77399C21.1353 1.42973 21.0624 1.3522 20.7284 1.3522C14.5463 1.3522 8.36117 1.3522 2.17909 1.3522C1.85723 1.3522 1.78132 1.42973 1.78132 1.76468C1.78132 5.51735 1.78132 9.27001 1.78132 13.0227C1.78132 13.3483 1.8542 13.4228 2.17302 13.4228C2.72564 13.4228 3.27522 13.4352 3.82785 13.4197C4.30456 13.4041 4.59909 13.736 4.58998 14.1888C4.57176 15.2029 4.58391 16.214 4.58694 17.2281C4.58694 17.2809 4.56873 17.3398 4.60213 17.3925Z" fill="white"/>
<path d="M20.3718 8.28076C22.5731 8.28076 24.7745 8.28076 26.9759 8.28076C27.7957 8.28076 28.4637 8.90414 28.5366 9.74151C28.5487 9.88107 28.5548 10.0206 28.5548 10.1571C28.5548 12.6444 28.5548 15.1286 28.5548 17.6159C28.5548 17.9074 28.5275 18.1959 28.3969 18.4564C28.0994 19.0487 27.6226 19.362 26.9698 19.3868C26.821 19.393 26.6267 19.3217 26.5326 19.4178C26.4445 19.5077 26.5083 19.7031 26.5083 19.852C26.5053 20.6428 26.4992 21.4337 26.5113 22.2245C26.5174 22.6308 26.3352 22.8572 26.1014 22.9472C25.7887 23.0681 25.5275 22.9689 25.2937 22.727C24.2462 21.6477 23.1895 20.5777 22.142 19.5015C22.06 19.4178 21.981 19.3837 21.8657 19.3837C19.1724 19.3868 16.4821 19.3868 13.7889 19.3868C12.9053 19.3868 12.1948 18.6952 12.1917 17.7958C12.1857 15.1348 12.1857 12.4738 12.1948 9.80974C12.1978 8.98787 12.9174 8.28076 13.7221 8.28076C15.9386 8.28076 18.1552 8.28076 20.3718 8.28076ZM25.1358 20.6646C25.151 20.6553 25.1692 20.649 25.1844 20.6397C25.1844 20.5901 25.1844 20.5405 25.1844 20.4909C25.1844 19.9109 25.1996 19.3341 25.1784 18.7541C25.1662 18.3633 25.4547 18.0129 25.901 18.0222C26.2198 18.0284 26.5387 18.0222 26.8575 18.0222C27.1368 18.0222 27.2188 17.9415 27.2188 17.6562C27.2188 15.11 27.2188 12.5607 27.2188 10.0144C27.2188 9.7105 27.1399 9.62986 26.8393 9.62986C22.5185 9.62986 18.1977 9.62986 13.8769 9.62986C13.5976 9.62986 13.5247 9.70429 13.5247 9.98652C13.5247 12.5483 13.5247 15.1131 13.5247 17.6748C13.5247 17.9509 13.5945 18.0222 13.8617 18.0222C16.64 18.0222 19.4153 18.0222 22.1936 18.0191C22.4578 18.0191 22.6673 18.109 22.8555 18.2982C23.5782 19.0425 24.3069 19.7838 25.0326 20.525C25.0721 20.5684 25.1024 20.618 25.1358 20.6646Z" fill="white"/>
<path d="M11.4702 4.46924C13.459 4.46924 15.4479 4.46924 17.4337 4.46924C17.8588 4.46924 18.1442 4.73906 18.1472 5.13603C18.1503 5.55162 17.8709 5.83074 17.4458 5.83384C13.453 5.83384 9.46315 5.83384 5.4703 5.83384C5.06646 5.83384 4.75675 5.52991 4.75979 5.14844C4.76282 4.76697 5.07254 4.47234 5.47637 4.47234C7.47432 4.46924 9.47226 4.46924 11.4702 4.46924Z" fill="white"/>
<path d="M7.70816 10.3027C6.94906 10.3027 6.18997 10.3058 5.43087 10.3027C5.11205 10.3027 4.84788 10.0856 4.78412 9.78165C4.69303 9.33815 4.98756 8.94428 5.43694 8.94118C6.96121 8.93497 8.48244 8.93497 10.0067 8.94118C10.3893 8.94118 10.6808 9.26062 10.6747 9.63588C10.6686 10.0143 10.3832 10.2996 10.0006 10.3027C9.23546 10.3058 8.47029 10.3027 7.70816 10.3027Z" fill="white"/>
<path d="M16.625 13.8258C16.625 13.4475 16.9135 13.1528 17.2869 13.1528C17.6634 13.1528 17.961 13.4537 17.958 13.8351C17.9549 14.2011 17.6513 14.5143 17.293 14.5143C16.9226 14.5174 16.625 14.2104 16.625 13.8258Z" fill="white"/>
<path d="M21.0303 13.8382C21.0272 14.2135 20.7327 14.5143 20.3653 14.5143C20.01 14.5143 19.6943 14.1949 19.6973 13.832C19.6973 13.4537 20.0009 13.1528 20.3805 13.1528C20.7479 13.1559 21.0333 13.4537 21.0303 13.8382Z" fill="white"/>
<path d="M22.7852 13.8289C22.7852 13.4413 23.0675 13.1528 23.441 13.1528C23.8236 13.1528 24.109 13.4475 24.106 13.8382C24.1029 14.2166 23.8054 14.5174 23.438 14.5143C23.0706 14.5112 22.7852 14.2135 22.7852 13.8289Z" fill="white"/>
</svg>
