<svg width="41" height="47" viewBox="0 0 41 47" fill="none" xmlns="http://www.w3.org/2000/svg">
<path d="M36.5 33.5V44.5C36.5 45.6 35.6 46.5 34.5 46.5H2.5C1.4 46.5 0.5 45.6 0.5 44.5V7.5C0.5 6.4 1.4 5.5 2.5 5.5H6.5" stroke="url(#paint0_lineardfg24222334)" stroke-miterlimit="10"/>
<path d="M30.5 5.5H34.5C35.6 5.5 36.5 6.4 36.5 7.5V22.5" stroke="url(#paint1_lineardfg24222334)" stroke-miterlimit="10"/>
<path d="M32.5 37.5V42.5H4.5V9.5H6.5" stroke="url(#paint2_lineardfg24222334)" stroke-miterlimit="10"/>
<path d="M30.5 9.5H32.5V26.5" stroke="url(#paint3_lineardfg24222334)" stroke-miterlimit="10"/>
<path d="M25.5 4.5H22.5C22.5 2.3 20.7 0.5 18.5 0.5C16.3 0.5 14.5 2.3 14.5 4.5H11.5C9.8 4.5 8.5 5.8 8.5 7.5V10.5H28.5V7.5C28.5 5.8 27.2 4.5 25.5 4.5Z" stroke="url(#paint4_lineardfg24222334)" stroke-miterlimit="10"/>
<path d="M18.5 3.5V5.5" stroke="url(#paint5_lineardfg24222334)" stroke-miterlimit="10"/>
<path d="M40.5 23.5L29.5 36.4L24.5 31.4" stroke="url(#paint6_lineardfg24222334)" stroke-miterlimit="10" stroke-linejoin="round"/>
<path d="M10.5 17.5H12.5" stroke="url(#paint7_lineardfg24222334)" stroke-miterlimit="10" stroke-linejoin="round"/>
<path d="M14.5 17.5H26.5" stroke="url(#paint8_lineardfg24222334)" stroke-miterlimit="10" stroke-linejoin="round"/>
<path d="M10.5 21.5H12.5" stroke="url(#paint9_lineardfg24222334)" stroke-miterlimit="10" stroke-linejoin="round"/>
<path d="M14.5 21.5H26.5" stroke="url(#paint10_lineardfg24222334)" stroke-miterlimit="10" stroke-linejoin="round"/>
<path d="M10.5 25.5H12.5" stroke="url(#paint11_lineardfg24222334)" stroke-miterlimit="10" stroke-linejoin="round"/>
<path d="M14.5 25.5H26.5" stroke="url(#paint12_lineardfg24222334)" stroke-miterlimit="10" stroke-linejoin="round"/>
<defs>
<linearGradient id="paint0_lineardfg24222334" x1="18.5" y1="5.5" x2="18.5" y2="46.5" gradientUnits="userSpaceOnUse">
<stop offset="0" stop-color="#B0104E"/>
<stop offset="1" stop-color="#030C59"/>
</linearGradient>
<linearGradient id="paint1_lineardfg24222334" x1="33.5" y1="5.5" x2="33.5" y2="22.5" gradientUnits="userSpaceOnUse">
<stop offset="0" stop-color="#B0104E"/>
<stop offset="1" stop-color="#030C59"/>
</linearGradient>
<linearGradient id="paint2_lineardfg24222334" x1="18.5" y1="9.5" x2="18.5" y2="42.5" gradientUnits="userSpaceOnUse">
<stop offset="0" stop-color="#B0104E"/>
<stop offset="1" stop-color="#030C59"/>
</linearGradient>
<linearGradient id="paint3_lineardfg24222334" x1="31.5" y1="9.5" x2="31.5" y2="26.5" gradientUnits="userSpaceOnUse">
<stop offset="0" stop-color="#B0104E"/>
<stop offset="1" stop-color="#030C59"/>
</linearGradient>
<linearGradient id="paint4_lineardfg24222334" x1="18.5" y1="0.5" x2="18.5" y2="10.5" gradientUnits="userSpaceOnUse">
<stop offset="0" stop-color="#B0104E"/>
<stop offset="1" stop-color="#030C59"/>
</linearGradient>
<linearGradient id="paint5_lineardfg24222334" x1="19" y1="3.5" x2="19" y2="5.5" gradientUnits="userSpaceOnUse">
<stop offset="0" stop-color="#B0104E"/>
<stop offset="1" stop-color="#030C59"/>
</linearGradient>
<linearGradient id="paint6_lineardfg24222334" x1="32.5" y1="23.5" x2="32.5" y2="36.4" gradientUnits="userSpaceOnUse">
<stop offset="0" stop-color="#B0104E"/>
<stop offset="1" stop-color="#030C59"/>
</linearGradient>
<linearGradient id="paint7_lineardfg24222334" x1="11.5" y1="17.5" x2="11.5" y2="18.5" gradientUnits="userSpaceOnUse">
<stop offset="0" stop-color="#B0104E"/>
<stop offset="1" stop-color="#030C59"/>
</linearGradient>
<linearGradient id="paint8_lineardfg24222334" x1="20.5" y1="17.5" x2="20.5" y2="18.5" gradientUnits="userSpaceOnUse">
<stop offset="0" stop-color="#B0104E"/>
<stop offset="1" stop-color="#030C59"/>
</linearGradient>
<linearGradient id="paint9_lineardfg24222334" x1="11.5" y1="21.5" x2="11.5" y2="22.5" gradientUnits="userSpaceOnUse">
<stop offset="0" stop-color="#B0104E"/>
<stop offset="1" stop-color="#030C59"/>
</linearGradient>
<linearGradient id="paint10_lineardfg24222334" x1="20.5" y1="21.5" x2="20.5" y2="22.5" gradientUnits="userSpaceOnUse">
<stop offset="0" stop-color="#B0104E"/>
<stop offset="1" stop-color="#030C59"/>
</linearGradient>
<linearGradient id="paint11_lineardfg24222334" x1="11.5" y1="25.5" x2="11.5" y2="26.5" gradientUnits="userSpaceOnUse">
<stop offset="0" stop-color="#B0104E"/>
<stop offset="1" stop-color="#030C59"/>
</linearGradient>
<linearGradient id="paint12_lineardfg24222334" x1="20.5" y1="25.5" x2="20.5" y2="26.5" gradientUnits="userSpaceOnUse">
<stop offset="0" stop-color="#B0104E"/>
<stop offset="1" stop-color="#030C59"/>
</linearGradient>
</defs>
</svg>
