<svg width="56" height="50" viewBox="0 0 56 50" fill="none" xmlns="http://www.w3.org/2000/svg">
<path d="M27.9394 0.609863C14.5771 0.609863 3.64434 11.5855 3.64434 25.0001V26.2196H1.21484L7.2886 34.7562L12.1476 26.2196H9.7181V25.0001C9.7181 14.8782 17.8569 6.70742 27.9394 6.70742C34.3775 6.70742 40.0869 10.1221 43.3667 15.244" stroke="url(#paint0_linear654654)" stroke-miterlimit="10"/>
<path d="M28.0611 49.3902C41.4234 49.3902 52.3561 38.4146 52.3561 25V23.7805H54.7856L48.7119 15.2439L43.8529 23.7805H46.2824V25C46.2824 35.1219 38.1436 43.2927 28.0611 43.2927C21.6229 43.2927 15.9136 39.878 12.6338 34.7561" stroke="url(#paint1_linear654654)" stroke-miterlimit="10"/>
<path d="M26.8465 31.2195H18.8291V30L21.9875 26.8293C22.9593 25.8537 23.5666 25.122 23.9311 24.7561C24.2955 24.3903 24.417 23.9025 24.6599 23.5366C24.7814 23.1708 24.9029 22.683 24.9029 22.1952C24.9029 21.5854 24.6599 20.9756 24.2955 20.6098C23.9311 20.2439 23.3237 20 22.7163 20C22.2304 20 21.7445 20.122 21.2586 20.2439C20.7727 20.3659 20.2868 20.7317 19.8009 21.0976L19.0721 20.122C20.1653 19.1464 21.3801 18.7805 22.7163 18.7805C23.8096 18.7805 24.7814 19.0244 25.3888 19.6342C25.9961 20.2439 26.3606 20.9756 26.3606 21.9512C26.3606 22.683 26.1176 23.5366 25.7532 24.2683C25.2673 25 24.5384 25.9756 23.3237 27.1952L20.6512 29.8781V30H26.8465V31.2195Z" fill="url(#paint2_linear654654)"/>
<path d="M37.1722 28.4148H35.35V31.2197H34.0138V28.4148H28.0615V27.1953L33.7709 18.9026H35.2286V27.0733H37.0507V28.4148H37.1722ZM34.0138 27.0733V23.0489C34.0138 22.1953 34.0138 21.3416 34.1353 20.366H34.0138C33.7709 20.8538 33.5279 21.3416 33.285 21.7075L29.5192 27.0733H34.0138Z" fill="url(#paint3_linear654654)"/>
<defs>
<linearGradient id="paint0_linear654654" x1="22.2908" y1="0.609863" x2="22.2908" y2="34.7562" gradientUnits="userSpaceOnUse">
<stop offset="0" stop-color="#B1104E"/>
<stop offset="1" stop-color="#030C59"/>
</linearGradient>
<linearGradient id="paint1_linear654654" x1="33.7097" y1="15.2439" x2="33.7097" y2="49.3902" gradientUnits="userSpaceOnUse">
<stop offset="0" stop-color="#B1104E"/>
<stop offset="1" stop-color="#030C59"/>
</linearGradient>
<linearGradient id="paint2_linear654654" x1="22.8378" y1="18.7805" x2="22.8378" y2="31.2195" gradientUnits="userSpaceOnUse">
<stop offset="0" stop-color="#B1104E"/>
<stop offset="1" stop-color="#030C59"/>
</linearGradient>
<linearGradient id="paint3_linear654654" x1="32.6168" y1="18.9026" x2="32.6168" y2="31.2197" gradientUnits="userSpaceOnUse">
<stop offset="0" stop-color="#B1104E"/>
<stop offset="1" stop-color="#030C59"/>
</linearGradient>
</defs>
</svg>
