<svg width="62" height="42" viewBox="0 0 62 42" fill="none" xmlns="http://www.w3.org/2000/svg">
<g clip-path="url(#clip0)">
<path d="M51.6974 7.67031C50.7608 6.7349 49.1687 5.98657 46.921 5.98657C44.5796 5.98657 43.0811 6.64136 42.1445 7.67031" stroke="url(#paint0_linear652432422342334)" stroke-miterlimit="10" stroke-linejoin="round"/>
<path d="M49.7314 24.5078C49.9188 25.4432 50.0124 26.098 50.5743 26.6593L58.7224 29.9332C59.4716 30.3074 60.1272 30.8686 60.3145 31.7105C60.6892 32.833 61.1574 36.3875 61.532 39.6615" stroke="url(#paint1_linear652432422342334)" stroke-miterlimit="10" stroke-linejoin="round"/>
<path d="M40.5527 14.9666C44.8609 14.3119 47.8579 13.5635 49.9183 10.2896C50.0119 10.196 50.1056 10.196 50.1993 10.196C50.2929 10.196 50.3866 10.2896 50.3866 10.3831C50.7612 11.5992 51.8851 14.5925 53.1962 15.2473C52.6343 20.1114 51.7914 22.7306 49.45 24.7885C48.8881 25.2562 48.5135 25.4433 47.8579 25.5368H47.7642C47.5769 25.5368 47.4832 25.5368 47.3896 25.6303C47.2959 25.6303 47.1086 25.6303 47.015 25.6303C46.734 25.6303 46.5467 25.6303 46.2657 25.5368C46.1721 25.5368 46.1721 25.5368 46.1721 25.5368C45.5165 25.4433 45.0482 25.2562 44.5799 24.7885C41.9576 22.637 41.1147 20.0179 40.5527 14.9666Z" stroke="url(#paint2_linear652432422342334)" stroke-miterlimit="10" stroke-linejoin="round"/>
<path d="M51.6982 7.67041C58.4414 13.47 54.6016 22.7305 54.7889 24.882C54.8825 25.7239 53.7587 25.8174 52.6348 26.0045" stroke="url(#paint3_linear652432422342334)" stroke-miterlimit="10" stroke-linejoin="round"/>
<path d="M42.0515 7.67041C35.3083 13.47 39.1482 22.7305 38.9609 24.882C38.8672 25.7239 39.9911 25.8174 41.115 26.0045" stroke="url(#paint4_linear652432422342334)" stroke-miterlimit="10" stroke-linejoin="round"/>
<path d="M43.2686 26.7527L46.0782 28.8106C46.5465 29.1848 47.2957 29.1848 47.764 28.8106L50.5737 26.7527" stroke="url(#paint5_linear652432422342334)" stroke-miterlimit="10" stroke-linejoin="round"/>
<path d="M44.0179 24.5078C43.9242 25.1626 43.7369 25.6303 43.5496 26.098C43.4559 26.2851 43.3623 26.4722 43.175 26.7528L35.5889 29.7461" stroke="url(#paint6_linear652432422342334)" stroke-miterlimit="10" stroke-linejoin="round"/>
<path d="M0.46875 41.9065C0.843372 37.8842 1.59262 33.4878 2.0609 32.0846C2.34186 31.1492 3.09111 30.4944 4.02766 30.1203L13.4869 26.4722L17.6077 29.1849C18.1697 29.559 19.0126 29.559 19.5745 29.1849L23.508 26.4722L33.1546 30.1203C34.0911 30.4944 34.8404 31.2428 35.1213 32.0846C35.5896 33.4878 36.3388 37.9777 36.7135 41.9065" stroke="url(#paint7_linear652432422342334)" stroke-miterlimit="10" stroke-linejoin="round"/>
<path d="M11.7078 33.6748C10.8649 31.6169 10.5839 29.4654 11.1459 27.314" stroke="url(#paint8_linear652432422342334)" stroke-miterlimit="10" stroke-linejoin="round"/>
<path d="M12.6438 36.5747C13.5749 36.5747 14.3296 35.8627 14.3296 34.9845C14.3296 34.1062 13.5749 33.3943 12.6438 33.3943C11.7128 33.3943 10.958 34.1062 10.958 34.9845C10.958 35.8627 11.7128 36.5747 12.6438 36.5747Z" stroke="url(#paint9_linear652432422342334)" stroke-miterlimit="10" stroke-linejoin="round"/>
<path d="M26.0371 27.4075C26.4117 28.717 26.3181 30.0266 26.1308 31.2427" stroke="url(#paint10_linear652432422342334)" stroke-miterlimit="10" stroke-linejoin="round"/>
<path d="M21.9155 39.6615L21.6346 40.6904C20.698 40.5033 19.9488 39.5679 20.2297 38.7261L22.1028 33.3942C22.7584 31.804 24.1633 30.7751 26.13 31.1492C28.0031 31.5234 28.846 33.1136 28.6587 34.7973L27.8158 40.3163C27.6285 41.2517 26.5047 41.7194 25.5681 41.4388L25.8491 40.4098" stroke="url(#paint11_linear652432422342334)" stroke-miterlimit="10" stroke-linecap="round" stroke-linejoin="round"/>
<path d="M9.36612 12.7217C9.36612 11.7863 9.27246 9.72835 9.27246 8.98002C9.27246 6.54795 9.92805 1.49673 14.5172 1.49673C16.0157 1.49673 15.5474 0.467773 18.4507 0.467773C27.1607 0.467773 27.8163 6.26733 27.8163 8.98002C27.7226 9.63481 27.7226 11.6927 27.7226 12.7217" stroke="url(#paint12_linear652432422342334)" stroke-miterlimit="10" stroke-linejoin="round"/>
<path d="M18.5441 24.3207C19.0124 24.3207 19.2933 24.3207 19.668 24.2272C19.7616 24.2272 19.8553 24.2272 19.8553 24.2272C20.6982 24.1336 21.3538 24.0401 22.103 23.4788C22.4776 23.1982 22.8523 22.9176 23.2269 22.5434C24.2571 21.608 25.1936 20.392 25.7556 19.4566L26.4112 17.5857C26.5048 17.3987 26.5985 17.2116 26.7858 17.118C28.097 15.902 28.9399 13.1893 27.535 12.5345C27.535 12.5345 26.9731 12.8151 26.4112 12.1604C26.1302 11.7862 25.8492 11.2249 25.6619 10.5702C25.6619 10.3831 25.4746 10.2895 25.2873 10.2895C19.668 11.1314 15.3598 8.23163 13.955 7.20267C13.8613 7.10913 13.674 7.10913 13.5804 7.10913C13.393 7.10913 13.2994 7.20267 13.2994 7.38975C13.2057 8.04454 13.0184 8.69933 12.8311 9.26058C12.3628 10.6637 11.7072 11.5991 10.8643 12.5345C10.3961 13.0022 9.74048 12.5345 9.74048 12.5345C8.24199 13.1893 9.17854 15.902 10.4897 17.118C10.677 17.2116 10.7707 17.3987 10.8643 17.5857L11.5199 19.4566C12.0819 20.392 13.0184 21.608 14.0486 22.5434C14.4233 22.9176 14.7979 23.1982 15.1725 23.4788C15.8281 24.0401 16.5773 24.1336 17.4202 24.2272C17.4202 24.2272 17.5139 24.2272 17.6075 24.2272C17.7949 24.3207 18.0758 24.3207 18.5441 24.3207Z" stroke="url(#paint13_linear652432422342334)" stroke-miterlimit="10" stroke-linejoin="round"/>
<path d="M23.1328 22.5435C23.2265 23.853 23.3201 25.3497 23.5074 26.3786" stroke="url(#paint14_linear652432422342334)" stroke-miterlimit="10" stroke-linejoin="round"/>
<path d="M13.9546 22.5435C13.861 23.853 13.7673 25.3497 13.4863 26.3786" stroke="url(#paint15_linear652432422342334)" stroke-miterlimit="10" stroke-linejoin="round"/>
<path d="M49.1689 37.1359V35.5457H54.2263V37.1359" stroke="url(#paint16_linear652432422342334)" stroke-miterlimit="10" stroke-linejoin="round"/>
</g>
<defs>
<linearGradient id="paint0_linear652432422342334" x1="46.921" y1="5.98657" x2="46.921" y2="7.67031" gradientUnits="userSpaceOnUse">
<stop offset="0" stop-color="#B1104E"/>
<stop offset="1" stop-color="#030C59"/>
</linearGradient>
<linearGradient id="paint1_linear652432422342334" x1="55.6317" y1="24.5078" x2="55.6317" y2="39.6615" gradientUnits="userSpaceOnUse">
<stop offset="0" stop-color="#B1104E"/>
<stop offset="1" stop-color="#030C59"/>
</linearGradient>
<linearGradient id="paint2_linear652432422342334" x1="46.8745" y1="10.196" x2="46.8745" y2="25.6303" gradientUnits="userSpaceOnUse">
<stop offset="0" stop-color="#B1104E"/>
<stop offset="1" stop-color="#030C59"/>
</linearGradient>
<linearGradient id="paint3_linear652432422342334" x1="53.704" y1="7.67041" x2="53.704" y2="26.0045" gradientUnits="userSpaceOnUse">
<stop offset="0" stop-color="#B1104E"/>
<stop offset="1" stop-color="#030C59"/>
</linearGradient>
<linearGradient id="paint4_linear652432422342334" x1="40.0458" y1="7.67041" x2="40.0458" y2="26.0045" gradientUnits="userSpaceOnUse">
<stop offset="0" stop-color="#B1104E"/>
<stop offset="1" stop-color="#030C59"/>
</linearGradient>
<linearGradient id="paint5_linear652432422342334" x1="46.9211" y1="26.7527" x2="46.9211" y2="29.0912" gradientUnits="userSpaceOnUse">
<stop offset="0" stop-color="#B1104E"/>
<stop offset="1" stop-color="#030C59"/>
</linearGradient>
<linearGradient id="paint6_linear652432422342334" x1="39.8034" y1="24.5078" x2="39.8034" y2="29.7461" gradientUnits="userSpaceOnUse">
<stop offset="0" stop-color="#B1104E"/>
<stop offset="1" stop-color="#030C59"/>
</linearGradient>
<linearGradient id="paint7_linear652432422342334" x1="18.5911" y1="26.4722" x2="18.5911" y2="41.9065" gradientUnits="userSpaceOnUse">
<stop offset="0" stop-color="#B1104E"/>
<stop offset="1" stop-color="#030C59"/>
</linearGradient>
<linearGradient id="paint8_linear652432422342334" x1="11.2807" y1="27.314" x2="11.2807" y2="33.6748" gradientUnits="userSpaceOnUse">
<stop offset="0" stop-color="#B1104E"/>
<stop offset="1" stop-color="#030C59"/>
</linearGradient>
<linearGradient id="paint9_linear652432422342334" x1="12.6438" y1="33.3943" x2="12.6438" y2="36.5747" gradientUnits="userSpaceOnUse">
<stop offset="0" stop-color="#B1104E"/>
<stop offset="1" stop-color="#030C59"/>
</linearGradient>
<linearGradient id="paint10_linear652432422342334" x1="26.1659" y1="27.4075" x2="26.1659" y2="31.2427" gradientUnits="userSpaceOnUse">
<stop offset="0" stop-color="#B1104E"/>
<stop offset="1" stop-color="#030C59"/>
</linearGradient>
<linearGradient id="paint11_linear652432422342334" x1="24.4271" y1="31.0723" x2="24.4271" y2="41.5196" gradientUnits="userSpaceOnUse">
<stop offset="0" stop-color="#B1104E"/>
<stop offset="1" stop-color="#030C59"/>
</linearGradient>
<linearGradient id="paint12_linear652432422342334" x1="18.5444" y1="0.467773" x2="18.5444" y2="12.7217" gradientUnits="userSpaceOnUse">
<stop offset="0" stop-color="#B1104E"/>
<stop offset="1" stop-color="#030C59"/>
</linearGradient>
<linearGradient id="paint13_linear652432422342334" x1="18.6171" y1="7.10913" x2="18.6171" y2="24.3207" gradientUnits="userSpaceOnUse">
<stop offset="0" stop-color="#B1104E"/>
<stop offset="1" stop-color="#030C59"/>
</linearGradient>
<linearGradient id="paint14_linear652432422342334" x1="23.3201" y1="22.5435" x2="23.3201" y2="26.3786" gradientUnits="userSpaceOnUse">
<stop offset="0" stop-color="#B1104E"/>
<stop offset="1" stop-color="#030C59"/>
</linearGradient>
<linearGradient id="paint15_linear652432422342334" x1="13.7205" y1="22.5435" x2="13.7205" y2="26.3786" gradientUnits="userSpaceOnUse">
<stop offset="0" stop-color="#B1104E"/>
<stop offset="1" stop-color="#030C59"/>
</linearGradient>
<linearGradient id="paint16_linear652432422342334" x1="51.6976" y1="35.5457" x2="51.6976" y2="37.1359" gradientUnits="userSpaceOnUse">
<stop offset="0" stop-color="#B1104E"/>
<stop offset="1" stop-color="#030C59"/>
</linearGradient>
<clipPath id="clip0">
<rect width="62" height="42" fill="white"/>
</clipPath>
</defs>
</svg>
