<svg width="61" height="49" viewBox="0 0 61 49" fill="none" xmlns="http://www.w3.org/2000/svg">
<g clip-path="url(#clip0)">
<path d="M36.6 44C33 46.3 28.7 47.6 24.1 47.6C11.1 47.6 0.5 37.1 0.5 24C0.5 10.9 11 0.5 24.1 0.5C35.6 0.5 45.2 8.7 47.2 19.6" stroke="url(#paint0_linear1)" stroke-miterlimit="10" stroke-linecap="round"/>
<path d="M33.1996 39.5C30.4996 41.1 27.3996 42 23.9996 42C14.0996 42 6.09961 34 6.09961 24.1C6.09961 14.2 14.0996 6.19995 23.9996 6.19995C32.5996 6.19995 39.7996 12.3 41.4996 20.3" stroke="url(#paint1_linear2)" stroke-miterlimit="10" stroke-linecap="round"/>
<path d="M19.2998 21.6L24.3998 16.5V31.6" stroke="url(#paint2_linear3)" stroke-miterlimit="10" stroke-linecap="round" stroke-linejoin="round"/>
<path d="M45.9004 47.6001C53.6324 47.6001 59.9004 41.3321 59.9004 33.6001C59.9004 25.8681 53.6324 19.6001 45.9004 19.6001C38.1684 19.6001 31.9004 25.8681 31.9004 33.6001C31.9004 41.3321 38.1684 47.6001 45.9004 47.6001Z" stroke="url(#paint3_linear4)" stroke-miterlimit="10" stroke-linecap="round"/>
<path d="M45.8996 43.9001C51.5881 43.9001 56.1996 39.2886 56.1996 33.6C56.1996 27.9115 51.5881 23.3 45.8996 23.3C40.2111 23.3 35.5996 27.9115 35.5996 33.6C35.5996 39.2886 40.2111 43.9001 45.8996 43.9001Z" stroke="url(#paint4_linear5)" stroke-miterlimit="10" stroke-linecap="round"/>
<path d="M19.9004 31.6001H28.9004" stroke="url(#paint5_linear6)" stroke-miterlimit="10" stroke-linecap="round" stroke-linejoin="round"/>
<path d="M42.9998 37.0001C43.4998 37.9001 44.5998 38.6001 45.8998 38.6001C47.5998 38.6001 48.9998 37.5001 48.9998 36.1001C48.9998 34.2001 47.4998 33.8001 45.8998 33.6001C43.6998 33.3001 42.7998 32.5001 42.7998 31.1001C42.7998 29.7001 44.1998 28.6001 45.8998 28.6001C47.1998 28.6001 48.2998 29.2001 48.7998 30.1001" stroke="url(#paint6_linear7)" stroke-miterlimit="10" stroke-linecap="round"/>
<path d="M45.9004 27.1001V40.1001" stroke="url(#paint7_linear8)" stroke-miterlimit="10" stroke-linecap="round"/>
</g>
<defs>
<linearGradient id="paint0_linear1" x1="23.85" y1="0.5" x2="23.85" y2="47.6" gradientUnits="userSpaceOnUse">
<stop offset="0" stop-color="#B1104E"/>
<stop offset="1" stop-color="#030C59"/>
</linearGradient>
<linearGradient id="paint1_linear2" x1="23.7996" y1="6.19995" x2="23.7996" y2="42" gradientUnits="userSpaceOnUse">
<stop offset="0" stop-color="#B1104E"/>
<stop offset="1" stop-color="#030C59"/>
</linearGradient>
<linearGradient id="paint2_linear3" x1="21.8498" y1="16.5" x2="21.8498" y2="31.6" gradientUnits="userSpaceOnUse">
<stop offset="0" stop-color="#B1104E"/>
<stop offset="1" stop-color="#030C59"/>
</linearGradient>
<linearGradient id="paint3_linear4" x1="45.9004" y1="19.6001" x2="45.9004" y2="47.6001" gradientUnits="userSpaceOnUse">
<stop offset="0" stop-color="#B1104E"/>
<stop offset="1" stop-color="#030C59"/>
</linearGradient>
<linearGradient id="paint4_linear5" x1="45.8996" y1="23.3" x2="45.8996" y2="43.9001" gradientUnits="userSpaceOnUse">
<stop offset="0" stop-color="#B1104E"/>
<stop offset="1" stop-color="#030C59"/>
</linearGradient>
<linearGradient id="paint5_linear6" x1="24.4004" y1="31.6001" x2="24.4004" y2="32.6001" gradientUnits="userSpaceOnUse">
<stop offset="0" stop-color="#B1104E"/>
<stop offset="1" stop-color="#030C59"/>
</linearGradient>
<linearGradient id="paint6_linear7" x1="45.8998" y1="28.6001" x2="45.8998" y2="38.6001" gradientUnits="userSpaceOnUse">
<stop offset="0" stop-color="#B1104E"/>
<stop offset="1" stop-color="#030C59"/>
</linearGradient>
<linearGradient id="paint7_linear8" x1="46.4004" y1="27.1001" x2="46.4004" y2="40.1001" gradientUnits="userSpaceOnUse">
<stop offset="0" stop-color="#B1104E"/>
<stop offset="1" stop-color="#030C59"/>
</linearGradient>
<clipPath id="clip0">
<rect width="60.5" height="48.1" fill="white"/>
</clipPath>
</defs>
</svg>
