<svg width="55" height="58" viewBox="0 0 55 58" fill="none" xmlns="http://www.w3.org/2000/svg">
<path fill-rule="evenodd" clip-rule="evenodd" d="M52.1837 14.7047C53.6936 15.6073 54.6182 17.2371 54.6182 18.9963V28.3521V29.702V39.0577C54.6182 40.817 53.6936 42.4468 52.1837 43.3494L29.8745 56.6855C28.2946 57.63 26.3235 57.63 24.7435 56.6855L2.43436 43.3494C0.924374 42.4468 -0.000148773 40.817 -0.000148773 39.0577V29.702V28.3521V18.9963C-0.000148773 17.2371 0.924374 15.6073 2.43436 14.7047L24.7435 1.36857C26.3235 0.4241 28.2946 0.424102 29.8745 1.36857L52.1837 14.7047Z" fill="#FFC700"/>
<path d="M27.9944 29L35.794 21.2003C36.0687 20.9257 36.0687 20.4805 35.794 20.206C35.5194 19.9314 35.0742 19.9313 34.7997 20.206L27 28.0056L19.2003 20.206C18.9257 19.9313 18.4805 19.9313 18.206 20.206C17.9314 20.4806 17.9313 20.9258 18.206 21.2003L26.0056 29L18.206 36.7997C17.9313 37.0743 17.9313 37.5195 18.206 37.7941C18.3432 37.9314 18.5232 38 18.7032 38C18.8831 38 19.0631 37.9314 19.2004 37.7941L27 29.9944L34.7996 37.7941C34.9369 37.9314 35.1169 38 35.2968 38C35.4768 38 35.6567 37.9314 35.794 37.7941C36.0687 37.5195 36.0687 37.0743 35.794 36.7997L27.9944 29Z" fill="black"/>
</svg>
