<svg width="53" height="45" viewBox="0 0 53 45" fill="none" xmlns="http://www.w3.org/2000/svg">
<g clip-path="url(#clip0)">
<path d="M26.2704 9.68907C24.8535 8.25089 23.5898 6.8884 22.326 5.63945C19.9135 3.25509 16.9648 2.11969 13.5182 2.27107C7.1613 2.46031 2.14468 7.87242 2.45104 14.155C2.60422 16.9178 3.59988 19.34 5.47633 21.3838C5.7061 21.6487 5.97416 21.9136 6.24222 22.1786C6.51029 22.4435 6.54858 22.7084 6.31881 22.9733C6.12734 23.2004 5.89757 23.4275 5.6678 23.6167C5.47633 23.7681 5.28485 23.8817 5.05508 24.0709C0.842656 20.1727 -0.689135 15.4797 0.804362 10.0675C2.25956 4.65543 6.01245 1.36275 11.5269 0.303034C16.0457 -0.567446 20.1432 0.605809 23.5515 3.78495C24.4705 4.65543 25.3513 5.56376 26.347 6.54778C27.1895 5.71514 27.9937 4.95821 28.7596 4.16342C32.0529 0.870738 36.0739 -0.416058 40.6692 0.189493C46.5666 0.946432 51.2003 5.37452 52.2343 11.0894C53.1151 15.896 51.7364 20.0591 48.2516 23.5411C48.1367 23.6546 47.9453 23.7681 47.8304 23.8438C47.6772 23.806 47.524 23.8438 47.4857 23.7681C46.1837 22.5949 46.1837 22.5949 47.2942 21.3459C53.1533 14.7984 49.8983 4.50404 41.282 2.536C37.3759 1.62768 33.7762 2.57385 30.7509 5.29883C29.7169 6.245 28.7596 7.26687 27.7639 8.25089C27.3044 8.66721 26.8831 9.08352 26.2704 9.68907Z" fill="url(#paint0_linear)"/>
<path d="M48.5197 28.8018C48.29 28.8396 48.0602 28.8775 47.7921 28.8775C43.5031 28.8775 39.2141 28.8775 34.9251 28.9153C34.1592 28.9153 33.6614 28.7261 33.2401 28.0827C32.972 27.6285 32.7423 27.0987 32.053 26.8337C30.6361 29.6344 29.1043 32.4351 27.4959 35.425C26.3088 33.7219 25.6194 31.9431 24.7004 30.2778C23.7813 28.5747 22.9005 26.8337 21.9814 25.0171C20.9092 26.1903 20.6028 27.6664 19.722 28.8018C14.6671 28.8018 9.57392 28.8018 4.48072 28.8018C4.32754 28.0827 4.28924 27.4393 4.48072 26.8337C5.13173 26.6066 5.74444 26.7202 6.31887 26.7202C9.99517 26.7202 13.6715 26.6823 17.3478 26.7202C18.152 26.7202 18.5732 26.4931 18.8796 25.774C19.5306 24.3358 20.2965 22.9733 21.0241 21.573C21.2538 21.1567 21.4836 20.7404 21.79 20.1727C22.1729 20.4754 22.3261 20.8539 22.4793 21.1945C23.8196 23.7681 25.1216 26.3796 26.4619 28.9532C26.73 29.483 26.9215 30.0886 27.4193 30.467C27.9171 30.2021 28.032 29.7101 28.2618 29.2938C29.3723 27.2879 30.4446 25.2442 31.5168 23.2004C31.8615 22.557 32.053 22.557 32.5125 23.2004C33.1635 24.0709 33.8145 24.9792 34.389 25.8876C34.7719 26.4931 35.2697 26.7959 36.0356 26.758C38.678 26.7202 41.282 26.7202 43.9244 26.7202C45.2647 26.7202 46.605 26.7202 47.9453 26.7202C48.4048 26.7202 48.6346 26.9473 48.6346 27.3636C48.7112 27.8177 48.7878 28.3098 48.5197 28.8018Z" fill="url(#paint1_linear)"/>
<path d="M14.1689 32.9271C14.5136 32.3594 14.9731 31.9052 15.6624 31.4889C19.1856 34.9708 22.747 38.4906 26.3084 42.0103C26.8445 41.5183 27.3041 41.102 27.7253 40.6857C30.4059 38.0364 33.0866 35.3871 35.7672 32.7378C36.0736 32.4351 36.3799 32.1323 36.6863 31.8295C36.9543 31.5646 37.2224 31.5267 37.4905 31.7917C37.8734 32.1701 38.3713 32.4729 38.5627 33.0028C37.2607 34.5166 27.4189 44.2055 26.3467 45.0002C25.1213 43.9784 15.1263 34.1003 14.1689 32.9271Z" fill="url(#paint2_linear)"/>
<path d="M1.30212 28.8396C1.07236 28.8396 0.804292 28.8396 0.574523 28.8396C0.306459 28.8396 0.114985 28.726 0.0766904 28.4233C-0.191373 26.9094 0.0766904 26.6445 1.60848 26.6823C2.56585 26.7201 2.60415 26.758 2.60415 27.742C2.60415 27.8556 2.60415 27.9691 2.60415 28.1205C2.56585 28.726 2.45097 28.8396 1.87655 28.8774C1.68507 28.8774 1.4936 28.8774 1.30212 28.8396C1.30212 28.8774 1.30212 28.8396 1.30212 28.8396Z" fill="url(#paint3_linear)"/>
<path d="M51.7361 26.7202C51.9659 26.7202 52.2339 26.7202 52.4637 26.7202C52.8467 26.758 52.9998 26.9851 52.9615 27.3257C52.9232 27.8177 53.2296 28.5368 52.6552 28.7639C52.0808 29.0288 51.3532 28.9531 50.7021 28.7639C50.5873 28.726 50.4724 28.499 50.4724 28.3476C50.4341 28.0448 50.4341 27.742 50.4341 27.4393C50.4724 26.8337 50.5873 26.7202 51.1617 26.6823C51.3532 26.6823 51.5446 26.6823 51.7361 26.7202C51.7361 26.6823 51.7361 26.7202 51.7361 26.7202Z" fill="url(#paint4_linear)"/>
</g>
<defs>
<linearGradient id="paint0_linear" x1="26.3695" y1="0.0245972" x2="26.3695" y2="24.0709" gradientUnits="userSpaceOnUse">
<stop offset="0" stop-color="#AC2C64"/>
<stop offset="1" stop-color="#472A6B"/>
</linearGradient>
<linearGradient id="paint1_linear" x1="26.5289" y1="20.1727" x2="26.5289" y2="35.425" gradientUnits="userSpaceOnUse">
<stop offset="0" stop-color="#AC2C64"/>
<stop offset="1" stop-color="#472A6B"/>
</linearGradient>
<linearGradient id="paint2_linear" x1="26.3658" y1="31.4889" x2="26.3658" y2="45.0002" gradientUnits="userSpaceOnUse">
<stop offset="0" stop-color="#AC2C64"/>
<stop offset="1" stop-color="#472A6B"/>
</linearGradient>
<linearGradient id="paint3_linear" x1="1.29475" y1="26.679" x2="1.29475" y2="28.8774" gradientUnits="userSpaceOnUse">
<stop offset="0" stop-color="#AC2C64"/>
<stop offset="1" stop-color="#472A6B"/>
</linearGradient>
<linearGradient id="paint4_linear" x1="51.7217" y1="26.6823" x2="51.7217" y2="28.9354" gradientUnits="userSpaceOnUse">
<stop offset="0" stop-color="#AC2C64"/>
<stop offset="1" stop-color="#472A6B"/>
</linearGradient>
<clipPath id="clip0">
<rect width="53" height="45" fill="white" transform="translate(0 0.000244141)"/>
</clipPath>
</defs>
</svg>
