<svg width="50" height="40" viewBox="0 0 50 40" fill="none" xmlns="http://www.w3.org/2000/svg">
<path d="M50 24.0002C50 24.1821 50 29.3639 50 30.7275C50 32.8184 48.5507 33.9093 46.7391 33.9093H43.0254C42.7536 35.3639 42.029 36.7275 40.942 37.8184C39.5833 39.1821 37.6812 40.0002 35.779 40.0002C33.3333 40.0002 31.0688 38.8184 29.7101 36.7275C29.4384 36.273 29.529 35.7275 29.9819 35.4548C30.4348 35.1821 30.9783 35.273 31.25 35.7275C32.2464 37.273 33.9674 38.1821 35.8696 38.1821C37.3188 38.1821 38.7681 37.6366 39.7645 36.5457C40.8514 35.4548 41.3949 34.0912 41.3949 32.6366C41.3949 31.1821 40.8514 29.7275 39.7645 28.7275C38.6775 27.6366 37.3188 27.0912 35.8696 27.0912C33.6051 27.0912 30.3442 28.6366 30.3442 33.0912C30.3442 33.6366 29.9819 34.0002 29.4384 34.0002H22.1014C21.4674 37.4548 18.4783 40.0912 14.8551 40.0912C12.8623 40.0912 11.0507 39.273 9.69203 37.9093C8.33333 36.5457 7.51812 34.6366 7.51812 32.7275C7.51812 30.8184 8.33333 28.9093 9.69203 27.5457C11.0507 26.1821 12.9529 25.3639 14.8551 25.3639C17.3913 25.3639 19.7464 26.6366 21.1051 28.8184C21.3768 29.273 21.2862 29.8184 20.8333 30.0912C20.3804 30.3639 19.837 30.273 19.5652 29.8184C18.5688 28.1821 16.7572 27.1821 14.8551 27.1821C13.4058 27.1821 11.9565 27.7275 10.9601 28.8184C9.87319 29.9093 9.32971 31.273 9.32971 32.7275C9.32971 34.1821 9.87319 35.6366 10.9601 36.6366C12.0471 37.7275 13.4058 38.273 14.8551 38.273C17.7536 38.273 20.1993 36.0002 20.3804 33.0912C20.3804 32.6366 20.8333 32.273 21.2862 32.273H28.5326C28.9855 27.273 33.1522 25.3639 35.8696 25.3639C37.8623 25.3639 39.6739 26.0912 41.0326 27.5457C42.3007 28.8184 43.0254 30.4548 43.1159 32.273H46.7391C47.2826 32.273 48.1884 32.1821 48.1884 30.7275C48.1884 29.4548 48.1884 24.1821 48.1884 24.0912C48.1884 23.1821 48.279 22.3639 47.6449 21.273C46.558 18.9093 39.5833 9.45479 39.0399 8.72752C37.6812 6.90934 36.0507 5.90934 34.058 5.90934H4.8913C2.71739 5.72752 1.81159 6.63661 1.81159 8.90934V30.1821C1.81159 31.273 2.89855 32.0912 3.98551 32.0912H5.25362C5.7971 32.0912 6.15942 32.4548 6.15942 33.0002C6.15942 33.5457 5.7971 33.9093 5.25362 33.9093H3.98551C1.81159 33.9093 0 32.0002 0 30.273C0 28.8184 0 8.90934 0 8.90934C0 5.63661 1.72101 3.90934 4.8913 3.90934H25.2717C25.5435 1.63661 27.4457 0.000244141 29.6196 0.000244141C31.7935 0.000244141 33.7862 1.72752 33.9674 3.90934H34.058C36.5942 3.90934 38.587 5.09115 40.4891 7.5457C41.2138 8.5457 48.0072 17.8184 49.1848 20.273C50.0906 21.7275 50 22.9093 50 24.0002ZM27.0833 3.90934H32.1558C31.8841 2.63661 30.7971 1.72752 29.6196 1.72752C28.442 1.72752 27.3551 2.63661 27.0833 3.90934ZM10.4167 19.0912L14.1304 16.9093V21.1821H15.7609V16.9093L19.4746 19.0912L20.2899 17.6366L16.5761 15.4548L20.2899 13.273L19.4746 11.8184L15.7609 14.0002V9.72752H14.1304V14.0002L10.4167 11.8184L9.60145 13.273L13.3152 15.4548L9.60145 17.6366L10.4167 19.0912ZM29.3478 18.3639C29.3478 17.9093 29.3478 9.36388 29.3478 8.81843C29.3478 8.27297 29.6196 7.81843 30.3442 7.81843C31.0688 7.81843 33.8768 7.81843 33.8768 7.81843C35.0543 7.81843 36.2319 8.36388 37.0471 9.45479C37.7717 10.3639 42.029 16.1821 42.9348 17.6366C43.1159 17.9093 43.1159 18.273 42.9348 18.5457C42.7536 18.8184 42.4819 19.0002 42.1196 19.0002C41.6667 19.0002 30.8877 19.0002 30.2536 19.0002C29.6196 19.0002 29.3478 18.9093 29.3478 18.3639ZM31.1594 9.72752V17.3639H40.4891C38.9493 15.1821 36.3225 11.5457 35.6884 10.7275C35.1449 10.0912 34.6014 9.72752 33.8768 9.72752H31.1594ZM35.8696 36.0002C33.9674 36.0002 32.5181 34.4548 32.5181 32.5457C32.5181 30.6366 34.058 29.1821 35.9601 29.1821C37.8623 29.1821 39.4022 30.7275 39.3116 32.6366C39.221 34.4548 37.6812 36.0002 35.8696 36.0002ZM35.8696 31.0002C34.9638 31.0002 34.3297 31.7275 34.2391 32.6366C34.2391 33.5457 34.9638 34.1821 35.779 34.273C36.6848 34.273 37.4094 33.5457 37.4094 32.6366C37.4094 31.7275 36.7754 31.0002 35.8696 31.0002ZM14.8551 36.0002C12.9529 36.0002 11.5036 34.4548 11.5036 32.5457C11.5036 30.6366 13.0435 29.1821 14.9457 29.1821C16.8478 29.1821 18.3877 30.7275 18.2971 32.6366C18.2065 34.4548 16.7572 36.0002 14.8551 36.0002ZM14.8551 31.0002C13.9493 31.0002 13.3152 31.7275 13.2246 32.6366C13.2246 33.5457 13.9493 34.1821 14.7645 34.1821C15.6703 34.1821 16.3949 33.4548 16.3949 32.5457C16.3949 31.7275 15.7609 31.0002 14.8551 31.0002Z" fill="#505050"/>
</svg>
