<svg width="31" height="43" viewBox="0 0 31 43" fill="none" xmlns="http://www.w3.org/2000/svg">
<path d="M31 4.17661C31 4.66137 31 5.07155 31 5.48173C31 13.0141 31 20.5092 31 28.0416C31 28.4145 31 28.7501 31 29.123C31 29.4586 30.8504 29.6823 30.5513 29.8687C30.1773 30.0925 29.8408 30.3162 29.5042 30.5399C25.69 32.8892 21.9131 35.2757 18.0989 37.6249C17.9493 37.7367 17.7998 37.8113 17.6502 37.8859C16.8275 38.2215 16.491 38.8181 16.5657 39.713C16.6405 40.608 16.5657 41.5029 16.5657 42.3979C16.5657 42.6589 16.4536 42.9199 16.1918 42.9572C15.7057 42.9945 15.2569 43.0318 14.7708 42.9572C14.509 42.9199 14.4343 42.6589 14.4343 42.3979C14.4343 41.5775 14.3595 40.7198 14.4343 39.8995C14.5464 38.8554 14.0603 38.2961 13.2376 37.774C9.12425 35.2757 5.01086 32.6654 0.897467 30.1671C0.224367 29.7569 0 29.3094 0 28.5636C0.0373944 20.6956 0 12.8277 0 4.95968C0 4.77324 0 4.58679 0.0373944 4.43764C0.0747889 4.13932 0.261761 4.02746 0.523522 4.02746C2.13148 4.02746 3.73944 4.02746 5.3848 4.02746C6.24487 4.02746 6.28227 3.99017 6.39445 3.13252C6.43185 2.83421 6.43185 2.5359 6.50663 2.23759C6.76839 1.04434 7.59107 0.261267 8.82509 0.0748222C9.16164 0.000244141 9.61037 0.000244141 10.0217 0.000244141C13.6864 0.000244141 17.3136 0.000244141 20.9783 0.000244141C21.0531 0.000244141 21.0905 0.000244141 21.1653 0.000244141C23.5959 0.0375332 24.3812 0.746024 24.6055 3.13252C24.6803 3.8783 24.7551 3.95288 25.4656 3.99017C26.737 3.99017 27.971 3.99017 29.2425 3.99017C29.7286 3.99017 30.2895 3.91559 31 4.17661ZM8.22678 6.11564C7.36671 6.11564 6.46924 6.07835 5.60917 6.11564C4.48733 6.19022 3.3655 5.85462 2.28106 6.33938C2.05669 7.38347 2.16888 8.46485 2.16888 9.54623C2.16888 15.4379 2.16888 21.3668 2.13148 27.2585C2.13148 28.0789 2.35585 28.5636 3.06634 28.9738C6.95537 31.323 10.807 33.7468 14.6586 36.1706C15.2195 36.5062 15.6683 36.5808 16.2666 36.2079C20.1556 33.7468 24.0446 31.323 27.971 28.8992C28.6068 28.5263 28.8685 28.0789 28.8311 27.3331C28.7937 23.0821 28.8311 18.8685 28.8311 14.6175C28.8311 12.0446 28.8311 9.47165 28.8311 6.936C28.8311 6.19022 28.7563 6.15293 28.0084 6.11564C26.4379 6.11564 24.9047 6.11564 23.3341 6.11564C22.5862 6.11564 22.4741 6.00378 22.4741 5.29528C22.4367 4.51221 22.4741 3.72915 22.4367 2.98337C22.3993 2.46132 22.1749 2.23759 21.6514 2.2003C21.427 2.16301 21.1653 2.2003 20.9409 2.2003C17.2762 2.2003 13.649 2.2003 9.98432 2.2003C9.87214 2.2003 9.75995 2.2003 9.61037 2.2003C8.7503 2.23759 8.52593 2.42403 8.48854 3.2071C8.48854 3.50541 8.48854 3.80372 8.48854 4.10204C8.41375 4.73595 8.63812 5.40715 8.22678 6.11564Z" fill="url(#paint0_linear)"/>
<path d="M4.03752 16.2903C4.78793 16.2166 5.23817 16.5481 5.72594 16.7692C9.02773 18.169 12.3295 18.2427 15.6313 16.7692C16.9821 16.1429 18.4078 15.6272 19.8711 15.3325C22.0098 14.8904 24.1484 14.9273 26.2871 15.222C26.8124 15.2956 27 15.4798 27 16.0692C27 18.2427 27 20.4162 27 22.5896C27 23.8421 26.9625 25.0578 27 26.3103C27 26.8997 26.8499 27.3049 26.2871 27.5996C24.8613 28.4469 23.4356 29.331 22.0098 30.2151C20.0962 31.3939 18.1452 32.5728 16.2316 33.7516C15.7064 34.0831 15.2936 34.0831 14.7684 33.7516C11.429 31.6886 8.08972 29.6257 4.71289 27.5996C4.26264 27.3417 4 27.047 4 26.4945C4.03752 23.1053 4.03752 19.7531 4.03752 16.2903ZM6.2137 19.4215C6.2137 21.4476 6.2137 23.4369 6.2137 25.4262C6.2137 25.905 6.51387 26.1629 6.88907 26.3839C9.47798 27.968 12.1044 29.5152 14.6558 31.1361C15.3312 31.5781 15.8189 31.4676 16.4192 31.0992C17.7325 30.252 19.0457 29.4784 20.3964 28.6679C21.6721 27.8943 22.9478 27.0839 24.2235 26.3471C24.6737 26.0892 24.8613 25.7209 24.8613 25.2051C24.8238 22.7738 24.8613 20.3793 24.8613 17.948C24.8613 17.3217 24.6737 17.1376 23.9984 17.1007C22.0098 17.027 20.0587 17.2849 18.1827 18.0217C17.1697 18.4269 16.1941 18.8321 15.1811 19.2005C13.1925 19.9004 11.1289 20.1583 8.99021 19.8636C8.08972 19.7162 7.26427 19.311 6.2137 19.4215Z" fill="url(#paint1_linear)"/>
<path d="M15.5155 4.03458C17.1524 4.03458 18.8291 4.03458 20.4659 4.03458C21.0249 4.03458 21.0249 4.41226 20.9849 4.72127C20.9051 5.16763 21.2644 5.75132 20.4659 5.95733C20.2264 6.026 19.9469 5.99166 19.7074 5.99166C16.9128 5.99166 14.1183 5.99166 11.3237 5.99166C10.0861 5.99166 9.96631 5.92299 10.0062 4.75561C10.0062 4.68694 10.0062 4.6526 10.0062 4.58394C10.0062 4.17192 10.2857 4.03458 10.7248 4.00024C12.0423 4.00024 13.3997 4.00024 14.7171 4.00024C15.0365 4.03458 15.276 4.03458 15.5155 4.03458Z" fill="url(#paint2_linear)"/>
<defs>
<linearGradient id="paint0_linear" x1="15.5" y1="0.000244141" x2="15.5" y2="43.0002" gradientUnits="userSpaceOnUse">
<stop offset="0" stop-color="#AC2C64"/>
<stop offset="1" stop-color="#472A6B"/>
</linearGradient>
<linearGradient id="paint1_linear" x1="15.5" y1="15.0002" x2="15.5" y2="34.0002" gradientUnits="userSpaceOnUse">
<stop offset="0" stop-color="#AC2C64"/>
<stop offset="1" stop-color="#472A6B"/>
</linearGradient>
<linearGradient id="paint2_linear" x1="15.5" y1="4.00024" x2="15.5" y2="6.00024" gradientUnits="userSpaceOnUse">
<stop offset="0" stop-color="#AC2C64"/>
<stop offset="1" stop-color="#472A6B"/>
</linearGradient>
</defs>
</svg>
