<svg width="39" height="40" viewBox="0 0 39 40" fill="none" xmlns="http://www.w3.org/2000/svg">
<g clip-path="url(#clip0)">
<path d="M29.1842 7.14983V7.21448L29.2431 7.24101C34.2005 9.47272 37.497 14.4473 37.497 20.095C37.497 25.7427 34.2005 30.7172 29.2431 32.949L29.1842 32.9755V33.0401V34.5567V34.7044L29.3213 34.6496C35.1893 32.3053 39.1004 26.5811 39.1004 20.095C39.1004 13.6086 35.1621 7.88469 29.3214 5.54044L29.1842 5.48535V5.63324V7.14983Z" fill="url(#paint0_linear)" stroke="#505050" stroke-width="0.2"/>
<path d="M29.1842 12.81V12.8553L29.2183 12.8852C31.1114 14.544 32.315 17.1699 32.315 20.095C32.315 23.0202 31.1114 25.6461 29.2183 27.3049L29.1842 27.3347V27.3801V29.1404V29.3276L29.3398 29.2235C32.1231 27.3616 33.9184 23.9166 33.9184 20.095C33.9184 16.2731 32.1228 12.8556 29.3403 10.9669L29.1842 10.8609V11.0497V12.81Z" fill="url(#paint1_linear)" stroke="#505050" stroke-width="0.2"/>
<path d="M20.809 27.9759C20.782 27.9759 20.728 27.9759 20.701 27.9759L18.5419 28.2196H16.5176C16.8415 28.5988 17.2194 28.9779 17.6782 29.33L17.9211 29.5195C18.0561 29.6279 18.245 29.682 18.4339 29.655L20.782 29.3841C20.809 29.3841 20.836 29.4112 20.863 29.4383C21.7536 30.2237 22.8062 33.2839 22.8062 35.8838C22.8062 37.2379 22.5093 37.8879 22.3744 37.942L19.9993 38.5107C19.8644 38.5378 19.7024 38.5649 19.5675 38.5649C17.1654 38.5649 14.1695 33.7172 12.7121 27.4342H16.0858C16.5716 27.2988 17.7592 26.7572 18.0291 25.4302C18.11 25.0239 18.083 24.6177 17.9481 24.2386C18.245 23.8865 18.4339 23.4532 18.5419 22.9657C18.6498 22.4241 18.5958 21.8554 18.4069 21.3679C18.8118 20.9617 19.0817 20.4471 19.1896 19.8784C19.2976 19.3638 19.2436 18.7951 19.0547 18.3076C19.4325 17.9014 19.7024 17.3868 19.8104 16.8452C19.9723 16.0327 19.7834 15.1932 19.2706 14.5703C18.7578 13.8933 17.9751 13.5141 17.1654 13.5141H16.9495C17.3273 12.8642 17.8401 12.2684 18.4879 11.7538L18.5149 11.7267L20.701 11.9705C20.728 11.9705 20.782 11.9705 20.809 11.9705C21.1329 11.9705 21.4298 11.835 21.7536 11.5371C23.1841 10.2643 24.1827 6.55407 24.1827 4.03545C24.1827 2.05847 23.6429 0.839784 22.6983 0.596046L20.3232 0.0273261C20.0533 0.0273261 19.7834 0.000244141 19.5405 0.000244141C16.3017 0.000244141 13.3599 4.82083 11.7405 10.6705C10.7149 10.6164 8.60969 11.2934 4.4263 14.7328H0V15.4369V16.1411H0.134948H4.91211L5.10104 15.9786C8.55571 13.1079 10.364 12.3496 11.1467 12.1329L10.5529 14.9495H17.1654C17.5433 14.9495 17.9211 15.139 18.164 15.4369C18.4069 15.7619 18.5149 16.1682 18.4339 16.5744C18.3529 16.9806 18.11 17.3327 17.7862 17.5493L17.1654 17.9285L17.5702 18.5243C17.7862 18.8222 17.8671 19.2284 17.7862 19.6076C17.7052 20.0138 17.4623 20.3659 17.1114 20.5825L16.4907 20.9617L16.9225 21.5575C17.1384 21.8824 17.2194 22.2887 17.1384 22.6678C17.0844 22.9928 16.8955 23.2907 16.6526 23.5074L16.1668 23.9136L16.4907 24.4281C16.6256 24.6448 16.6526 24.8885 16.6256 25.1323C16.5176 25.6197 16.1128 25.9989 15.627 25.9989H9.04152C7.39516 25.9989 6.18062 25.4843 4.80415 24.8615C4.64221 24.7802 4.48028 24.726 4.31834 24.6448H4.21038H1.75433V25.3489V26.0531H3.91349C4.02145 26.1072 4.1564 26.1614 4.26436 26.2155C5.66782 26.8384 7.12526 27.4613 9.06851 27.4613H11.2817C12.7661 34.1235 15.9779 40.0002 19.5675 40.0002C19.8104 40.0002 20.0803 39.9732 20.3232 39.919L22.6983 39.3503C23.6699 39.1065 24.1827 37.8879 24.1827 35.9109C24.1827 33.3923 23.1841 29.682 21.7536 28.4092C21.4298 28.1113 21.1059 27.9759 20.809 27.9759ZM15.3571 13.5412H12.4962C13.8187 7.04154 16.8145 1.4085 19.5405 1.4085C19.6754 1.4085 19.8374 1.43559 19.9723 1.46267L22.3204 2.03139C22.4554 2.11263 22.7522 2.7626 22.7522 4.1167C22.7522 6.71656 21.6727 9.77682 20.809 10.5622C20.782 10.5893 20.755 10.6164 20.728 10.6164L18.3799 10.3455C18.191 10.3185 18.0291 10.3726 17.8671 10.4809L17.6242 10.6705C16.5716 11.483 15.8429 12.4579 15.3571 13.5412Z" fill="url(#paint2_linear)"/>
</g>
<defs>
<linearGradient id="paint0_linear" x1="34.1423" y1="5.63324" x2="34.1423" y2="34.5567" gradientUnits="userSpaceOnUse">
<stop offset="0" stop-color="#AC2C64"/>
<stop offset="1" stop-color="#472A6B"/>
</linearGradient>
<linearGradient id="paint1_linear" x1="31.5513" y1="11.0497" x2="31.5513" y2="29.1404" gradientUnits="userSpaceOnUse">
<stop offset="0" stop-color="#AC2C64"/>
<stop offset="1" stop-color="#472A6B"/>
</linearGradient>
<linearGradient id="paint2_linear" x1="12.0913" y1="0.000244141" x2="12.0913" y2="40.0002" gradientUnits="userSpaceOnUse">
<stop offset="0" stop-color="#AC2C64"/>
<stop offset="1" stop-color="#472A6B"/>
</linearGradient>
<clipPath id="clip0">
<rect width="39" height="40" fill="white" transform="translate(0 0.000244141)"/>
</clipPath>
</defs>
</svg>
