<svg width="47" height="45" viewBox="0 0 47 45" fill="none" xmlns="http://www.w3.org/2000/svg">
<g clip-path="url(#clip0)">
<path d="M2.27149 6.54645C2.27149 7.29122 2.27149 7.9968 2.27149 8.66317C2.27149 19.3252 2.27149 29.9872 2.27149 40.6492C2.27149 41.198 2.27149 41.786 2.34982 42.3348C2.34982 42.4524 2.58482 42.57 2.74149 42.6484C2.93732 42.7268 3.17232 42.6092 3.21149 42.4524C3.40732 41.8644 3.52482 41.2372 3.68149 40.6492C4.42566 37.0822 5.20899 33.5543 5.91399 29.9872C6.03149 29.4384 6.26649 29.2424 6.77566 29.2424C7.16732 29.2424 7.51982 29.2424 7.91149 29.2424C18.3298 29.2424 28.709 29.2424 39.1273 29.2424C39.5582 29.2424 39.989 29.2424 40.459 29.2424C40.9682 29.2424 41.0857 29.5952 41.164 29.9872C41.4773 31.4376 41.7907 32.9271 42.104 34.4167C42.6132 36.8862 43.1223 39.3165 43.6315 41.786C43.6707 42.0212 43.749 42.2956 43.8665 42.4916C43.9448 42.6092 44.1407 42.7268 44.2973 42.7268C44.4932 42.7268 44.6498 42.6092 44.689 42.4132C44.7282 42.178 44.7282 41.9036 44.7282 41.6684C44.7282 36.7294 44.7282 31.7511 44.7282 26.8121C44.7282 26.4985 44.689 26.1849 44.6107 25.7538C42.4565 25.7146 40.3415 25.7538 38.2265 25.7146C36.1115 25.7146 33.9573 25.7146 31.8423 25.7146C29.649 25.7146 27.4557 25.7146 25.2623 25.7146C23.1473 25.7146 20.9932 25.7146 18.8782 25.7146C16.7632 25.7146 14.609 25.7146 12.494 25.7146C10.379 25.7146 8.26399 25.7146 6.14899 25.7146C5.87482 24.8522 5.99232 24.0682 5.99232 23.3234C5.99232 21.1283 5.99232 18.9332 5.99232 16.7381C5.99232 15.9541 6.07066 15.8757 6.85399 15.8365C9.16482 15.8365 11.4757 15.8365 13.8257 15.8365C14.8832 15.8365 15.9407 15.7973 17.0373 15.8757C19.5832 16.0717 21.4632 17.9532 21.6982 20.462C21.7765 21.4419 21.3848 22.3043 21.189 23.3234C21.7765 23.5586 22.4032 23.4802 22.9907 23.4802C30.3148 23.4802 37.639 23.4802 45.0023 23.4802C47.3915 23.4802 47.0782 23.1667 47.0782 25.5578C47.0782 31.3984 47.0782 37.239 47.0782 43.0403C47.0782 43.6675 47.2348 44.2947 46.9215 44.8827C46.7648 44.9219 46.6865 45.0003 46.569 45.0003C45.1198 45.0003 43.7098 45.1179 42.2607 44.9219C41.5165 43.7067 41.5165 42.2956 41.2423 40.9628C40.6157 38.1405 40.0673 35.3182 39.4798 32.4959C39.284 31.5552 39.2057 31.4768 38.2265 31.4768C36.5423 31.4768 34.8582 31.4768 33.1348 31.4768C25.419 31.4768 17.7032 31.4768 10.0265 31.4768C7.71566 31.4768 8.10732 31.2416 7.63732 33.3975C6.85399 36.9254 6.14899 40.4924 5.36566 44.0595C5.16982 44.9611 5.13066 45.0003 4.30816 45.0395C3.13316 45.0395 1.91899 45.0395 0.743988 45.0003C0.391488 45.0003 0.156488 44.7651 0.156488 44.4123C0.156488 44.0203 0.156488 43.6675 0.156488 43.2755C-0.000178796 31.5944 -0.000178802 19.9132 -0.000178802 8.23199C-0.000178802 6.54645 -0.274345 6.19366 2.27149 6.54645ZM12.6898 23.441C13.7473 23.441 14.8048 23.441 15.8623 23.441C16.254 23.441 16.6065 23.441 16.9982 23.4018C18.2907 23.2451 19.309 22.1867 19.3873 20.8931C19.4657 19.5996 18.4082 18.3452 17.0373 18.1492C16.724 18.11 16.4107 18.11 16.0973 18.11C14.9223 18.11 13.7082 18.0708 12.5332 18.11C11.1232 18.1884 9.67399 17.8356 8.30316 18.3452C8.06816 19.7564 8.26399 21.2067 8.18566 22.6571C8.18566 22.7355 8.18566 22.7747 8.18566 22.8531C8.18566 23.2059 8.38149 23.441 8.73399 23.441C10.0265 23.441 11.3582 23.441 12.6898 23.441Z" fill="#505050"/>
<path d="M34.2316 17.4436C34.2316 16.0717 34.2316 14.9741 34.2316 13.8374C34.2316 12.779 34.1924 12.779 33.2132 12.7398C32.3516 12.7398 31.4507 12.7398 30.5891 12.7398C30.2757 12.7398 30.0016 12.7006 29.6882 12.6614C29.4141 11.799 29.5707 10.9759 29.5316 10.1919C29.4924 8.62394 29.5316 7.05599 29.5316 5.48805C29.5316 4.82167 29.6491 4.70408 30.2757 4.70408C31.3332 4.66488 32.3907 4.70408 33.4482 4.66488C34.0749 4.66488 34.1924 4.54728 34.1924 3.88091C34.1924 2.82254 34.1924 1.76418 34.1924 0.705819C34.2316 0.235436 34.4666 0.000244141 34.8974 0.000244141C37.2474 0.000244141 39.6366 0.000244141 41.9082 0.000244141C42.2607 0.431429 42.2216 0.823415 42.2216 1.1762C42.2216 1.99937 42.2216 2.82254 42.2216 3.60652C42.2607 4.62568 42.2607 4.62568 43.3182 4.66488C44.1407 4.66488 44.9632 4.66488 45.7466 4.66488C46.9216 4.66488 46.9216 4.70408 46.9216 5.76244C46.9216 7.83996 46.9216 9.87829 46.9216 11.9558C46.9216 12.583 46.8041 12.7006 46.1382 12.7006C45.0024 12.7398 43.9057 12.7006 42.7699 12.7398C42.3782 12.7398 42.2216 12.975 42.2216 13.3278C42.2216 14.4645 42.2216 15.5621 42.2216 16.6988C42.2216 17.13 42.0257 17.4044 41.5557 17.4044C39.2057 17.4436 36.8166 17.4436 34.2316 17.4436ZM44.7282 8.81993C44.7282 8.42794 44.7282 8.07516 44.7282 7.68317C44.7282 7.25199 44.5716 6.9776 44.0624 6.9776C43.5532 6.9776 43.0441 7.01679 42.5741 6.9776C41.7907 6.9384 40.7724 7.33038 40.2241 6.7424C39.7149 6.15443 40.0282 5.17446 40.0282 4.39049C39.9891 1.99937 40.2632 2.27376 37.9524 2.27376C36.5032 2.27376 36.4641 2.27376 36.4641 3.68491C36.4641 4.39049 36.4641 5.05686 36.4641 5.76244C36.4641 7.01679 36.4249 7.01679 35.2107 7.01679C34.8974 7.01679 34.5841 7.01679 34.2707 7.01679C31.2941 7.05599 31.8032 6.54641 31.7641 9.6431C31.7641 10.4271 31.8816 10.5447 32.5866 10.5447C33.1349 10.5447 33.7224 10.5447 34.2707 10.5447C36.7774 10.5839 36.3857 10.1919 36.4249 12.7398C36.4641 15.6405 35.9941 15.2485 39.0882 15.2485C39.8716 15.2485 39.9891 15.0917 40.0282 14.1901C40.0282 13.171 40.0282 12.191 40.0282 11.1718C40.0282 10.7015 40.2632 10.5055 40.7332 10.5055C41.4774 10.5055 42.2216 10.5055 43.0049 10.5055C44.8066 10.5055 44.7282 10.6623 44.7282 8.81993Z" fill="#505050"/>
</g>
<defs>
<clipPath id="clip0">
<rect width="47" height="45" fill="white" transform="translate(0 0.000244141)"/>
</clipPath>
</defs>
</svg>
