<svg width="39" height="40" viewBox="0 0 39 40" fill="none" xmlns="http://www.w3.org/2000/svg">
<g clip-path="url(#clip0)">
<path d="M29.1842 7.14983V7.21448L29.2431 7.24101C34.2005 9.47273 37.497 14.4473 37.497 20.095C37.497 25.7427 34.2005 30.7172 29.2431 32.949L29.1842 32.9755V33.0401V34.5567V34.7044L29.3213 34.6496C35.1893 32.3053 39.1004 26.5811 39.1004 20.095C39.1004 13.6086 35.1621 7.88469 29.3214 5.54044L29.1842 5.48535V5.63324V7.14983Z" fill="#505050" stroke="#505050" stroke-width="0.2"/>
<path d="M29.1842 12.81V12.8553L29.2183 12.8852C31.1114 14.544 32.315 17.1699 32.315 20.095C32.315 23.0202 31.1114 25.6461 29.2183 27.3049L29.1842 27.3347V27.3801V29.1404V29.3276L29.3398 29.2235C32.1231 27.3616 33.9184 23.9166 33.9184 20.095C33.9184 16.2731 32.1228 12.8556 29.3403 10.9669L29.1842 10.8609V11.0497V12.81Z" fill="#505050" stroke="#505050" stroke-width="0.2"/>
<path d="M20.701 27.8759V27.8752L20.6898 27.8765L18.5362 28.1196H16.5176H16.3007L16.4416 28.2846C16.769 28.6679 17.1518 29.052 17.617 29.4091C17.6171 29.4091 17.6172 29.4092 17.6173 29.4093L17.8585 29.5975C17.8587 29.5977 17.8589 29.5978 17.8591 29.598C18.0156 29.7233 18.2315 29.7846 18.4466 29.7541L20.7688 29.4863C20.7704 29.4877 20.7722 29.4894 20.7742 29.4912C20.7796 29.4963 20.7852 29.5019 20.7921 29.5089L20.792 29.509L20.7968 29.5133C21.0055 29.6973 21.2314 30.0226 21.4533 30.4567C21.6742 30.8886 21.8873 31.4207 22.0732 32.0107C22.4453 33.1912 22.7062 34.596 22.7062 35.8838C22.7062 36.5539 22.6327 37.046 22.5443 37.3744C22.5001 37.5389 22.4527 37.6602 22.4101 37.7417C22.3888 37.7826 22.3698 37.8114 22.3544 37.8301C22.3463 37.84 22.3405 37.8454 22.3375 37.848L19.9778 38.4131C19.844 38.4399 19.6912 38.4649 19.5675 38.4649C19.0006 38.4649 18.3854 38.1783 17.7532 37.6335C17.122 37.0897 16.4831 36.2965 15.8707 35.3032C14.6621 33.343 13.5654 30.6173 12.8382 27.5342H16.0858H16.0995L16.1127 27.5306C16.6115 27.3915 17.8459 26.8327 18.1271 25.4501L18.1271 25.4497C18.2077 25.0456 18.1858 24.6403 18.0608 24.259C18.3496 23.9001 18.5333 23.4667 18.6395 22.9873L18.6399 22.9853C18.7472 22.4472 18.7001 21.8835 18.5228 21.3923C18.9167 20.9794 19.18 20.4644 19.2877 19.898C19.3953 19.3843 19.3474 18.8208 19.1698 18.3298C19.5378 17.918 19.8008 17.405 19.9085 16.8647C20.0756 16.0259 19.8815 15.156 19.3491 14.5083C18.8173 13.8073 18.0057 13.4141 17.1654 13.4141H17.1263C17.4878 12.8335 17.9621 12.2992 18.5501 11.8321L18.5505 11.8326L18.5517 11.8314L20.69 12.0698L20.6899 12.0705H20.701H20.7012H20.7014H20.7015H20.7017H20.7018H20.702H20.7022H20.7023H20.7025H20.7026H20.7028H20.703H20.7031H20.7033H20.7035H20.7036H20.7038H20.704H20.7041H20.7043H20.7045H20.7047H20.7048H20.705H20.7052H20.7053H20.7055H20.7057H20.7059H20.706H20.7062H20.7064H20.7066H20.7068H20.7069H20.7071H20.7073H20.7075H20.7076H20.7078H20.708H20.7082H20.7084H20.7086H20.7087H20.7089H20.7091H20.7093H20.7095H20.7097H20.7099H20.71H20.7102H20.7104H20.7106H20.7108H20.711H20.7112H20.7114H20.7115H20.7117H20.7119H20.7121H20.7123H20.7125H20.7127H20.7129H20.7131H20.7133H20.7135H20.7137H20.7139H20.7141H20.7143H20.7145H20.7147H20.7149H20.7151H20.7153H20.7155H20.7157H20.7159H20.7161H20.7163H20.7165H20.7167H20.7169H20.7171H20.7173H20.7175H20.7177H20.7179H20.7181H20.7183H20.7185H20.7187H20.7189H20.7191H20.7193H20.7195H20.7197H20.72H20.7202H20.7204H20.7206H20.7208H20.721H20.7212H20.7214H20.7216H20.7218H20.7221H20.7223H20.7225H20.7227H20.7229H20.7231H20.7233H20.7236H20.7238H20.724H20.7242H20.7244H20.7246H20.7248H20.7251H20.7253H20.7255H20.7257H20.7259H20.7261H20.7264H20.7266H20.7268H20.727H20.7272H20.7275H20.7277H20.7279H20.7281H20.7283H20.7286H20.7288H20.729H20.7292H20.7295H20.7297H20.7299H20.7301H20.7304H20.7306H20.7308H20.731H20.7312H20.7315H20.7317H20.7319H20.7321H20.7324H20.7326H20.7328H20.7331H20.7333H20.7335H20.7337H20.734H20.7342H20.7344H20.7346H20.7349H20.7351H20.7353H20.7356H20.7358H20.736H20.7362H20.7365H20.7367H20.7369H20.7372H20.7374H20.7376H20.7379H20.7381H20.7383H20.7385H20.7388H20.739H20.7392H20.7395H20.7397H20.7399H20.7402H20.7404H20.7406H20.7409H20.7411H20.7413H20.7416H20.7418H20.742H20.7423H20.7425H20.7427H20.743H20.7432H20.7434H20.7437H20.7439H20.7441H20.7444H20.7446H20.7448H20.7451H20.7453H20.7456H20.7458H20.746H20.7463H20.7465H20.7467H20.747H20.7472H20.7474H20.7477H20.7479H20.7481H20.7484H20.7486H20.7489H20.7491H20.7493H20.7496H20.7498H20.75H20.7503H20.7505H20.7507H20.751H20.7512H20.7515H20.7517H20.7519H20.7522H20.7524H20.7526H20.7529H20.7531H20.7534H20.7536H20.7538H20.7541H20.7543H20.7545H20.7548H20.755H20.7553H20.7555H20.7557H20.756H20.7562H20.7564H20.7567H20.7569H20.7572H20.7574H20.7576H20.7579H20.7581H20.7583H20.7586H20.7588H20.759H20.7593H20.7595H20.7598H20.76H20.7602H20.7605H20.7607H20.7609H20.7612H20.7614H20.7616H20.7619H20.7621H20.7624H20.7626H20.7628H20.7631H20.7633H20.7635H20.7638H20.764H20.7642H20.7645H20.7647H20.7649H20.7652H20.7654H20.7657H20.7659H20.7661H20.7664H20.7666H20.7668H20.7671H20.7673H20.7675H20.7678H20.768H20.7682H20.7685H20.7687H20.7689H20.7692H20.7694H20.7696H20.7699H20.7701H20.7703H20.7706H20.7708H20.771H20.7713H20.7715H20.7717H20.7719H20.7722H20.7724H20.7726H20.7729H20.7731H20.7733H20.7736H20.7738H20.774H20.7742H20.7745H20.7747H20.7749H20.7752H20.7754H20.7756H20.7758H20.7761H20.7763H20.7765H20.7768H20.777H20.7772H20.7774H20.7777H20.7779H20.7781H20.7783H20.7786H20.7788H20.779H20.7792H20.7795H20.7797H20.7799H20.7801H20.7804H20.7806H20.7808H20.781H20.7812H20.7815H20.7817H20.7819H20.7821H20.7823H20.7826H20.7828H20.783H20.7832H20.7834H20.7837H20.7839H20.7841H20.7843H20.7845H20.7848H20.785H20.7852H20.7854H20.7856H20.7858H20.786H20.7863H20.7865H20.7867H20.7869H20.7871H20.7873H20.7875H20.7878H20.788H20.7882H20.7884H20.7886H20.7888H20.789H20.7892H20.7894H20.7897H20.7899H20.7901H20.7903H20.7905H20.7907H20.7909H20.7911H20.7913H20.7915H20.7917H20.7919H20.7921H20.7923H20.7926H20.7928H20.793H20.7932H20.7934H20.7936H20.7938H20.794H20.7942H20.7944H20.7946H20.7948H20.795H20.7952H20.7954H20.7956H20.7958H20.796H20.7962H20.7964H20.7965H20.7967H20.7969H20.7971H20.7973H20.7975H20.7977H20.7979H20.7981H20.7983H20.7985H20.7987H20.7989H20.7991H20.7992H20.7994H20.7996H20.7998H20.8H20.8002H20.8004H20.8006H20.8007H20.8009H20.8011H20.8013H20.8015H20.8017H20.8018H20.802H20.8022H20.8024H20.8026H20.8027H20.8029H20.8031H20.8033H20.8035H20.8036H20.8038H20.804H20.8042H20.8043H20.8045H20.8047H20.8049H20.805H20.8052H20.8054H20.8055H20.8057H20.8059H20.806H20.8062H20.8064H20.8066H20.8067H20.8069H20.8071H20.8072H20.8074H20.8075H20.8077H20.8079H20.808H20.8082H20.8084H20.8085H20.8087H20.8088H20.809C21.1654 12.0705 21.4852 11.9198 21.8207 11.6113C22.5572 10.9555 23.1707 9.68748 23.6002 8.2827C24.0311 6.87319 24.2827 5.30609 24.2827 4.03545C24.2827 3.03945 24.147 2.22542 23.8864 1.62593C23.6254 1.02524 23.2344 0.631115 22.7233 0.499218L22.7233 0.499203L22.7216 0.498796L20.3465 -0.0699247L20.335 -0.0726739H20.3232C20.1912 -0.0726739 20.0587 -0.0792975 19.9269 -0.0860828L19.9153 -0.0866763C19.7883 -0.0932191 19.6614 -0.0997559 19.5405 -0.0997559C17.8701 -0.0997559 16.2988 1.14112 14.951 3.08476C13.6116 5.01638 12.4755 7.66589 11.6652 10.5679C11.1296 10.5593 10.35 10.735 9.22261 11.3022C8.04153 11.8965 6.47174 12.924 4.39049 14.6328H0H-0.1V14.7328V15.4369V16.1411V16.2411H0H0.134948H4.91211H4.9492L4.97732 16.2169L5.16495 16.0555C5.16516 16.0553 5.16538 16.0551 5.16559 16.055C8.39413 13.3723 10.1737 12.545 11.0142 12.2768L10.4551 14.9288L10.4297 15.0495H10.5529H17.1654C17.5105 15.0495 17.8599 15.2232 18.0852 15.4985C18.3118 15.8025 18.4106 16.1796 18.3358 16.5548C18.2603 16.9341 18.0335 17.2629 17.7323 17.4651L17.1133 17.8431L17.0237 17.8979L17.0827 17.9847L17.4875 18.5805L17.4875 18.5805L17.4893 18.583C17.6876 18.8566 17.7638 19.2336 17.6884 19.5867L17.6881 19.588C17.6125 19.9673 17.3859 20.2955 17.0589 20.4974L16.4385 20.8763L16.3462 20.9327L16.4097 21.0203L16.8403 21.6145C17.0409 21.9174 17.1157 22.2955 17.0406 22.6469L17.0405 22.6469L17.0398 22.6514C16.9903 22.9492 16.816 23.2272 16.5872 23.4317L16.1026 23.8369L16.0356 23.8929L16.0822 23.9669L16.4058 24.481C16.4058 24.4811 16.4058 24.4811 16.4059 24.4812C16.5242 24.6712 16.5512 24.8883 16.5268 25.1159C16.4254 25.5635 16.056 25.8989 15.627 25.8989H9.04152C7.41911 25.8989 6.22202 25.3933 4.84719 24.7712C4.76372 24.7294 4.68069 24.6947 4.60116 24.6614L4.59982 24.6609C4.51839 24.6268 4.44058 24.5942 4.36318 24.5554L4.34202 24.5448H4.31834H4.21038H1.75433H1.65433V24.6448V25.3489V26.0531V26.1531H1.75433H3.89013C3.94037 26.1775 3.99465 26.2018 4.04696 26.2251L4.0482 26.2256C4.10942 26.2529 4.16796 26.2791 4.21952 26.3049L4.21947 26.305L4.22379 26.3069C5.62799 26.9302 7.10235 27.5613 9.06851 27.5613H11.2016C11.9464 30.8708 13.1167 33.9859 14.5503 36.2821C15.9908 38.5893 17.7171 40.1002 19.5675 40.1002C19.8171 40.1002 20.0943 40.0725 20.3449 40.0166L20.3465 40.0163L22.7216 39.4475L22.7226 39.4473C23.2475 39.3156 23.6389 38.9214 23.8968 38.32C24.1539 37.7203 24.2827 36.9063 24.2827 35.9109C24.2827 34.6402 24.0311 33.0731 23.6002 31.6636C23.1707 30.2588 22.5572 28.9908 21.8207 28.335C21.4841 28.0256 21.1374 27.8759 20.809 27.8759H20.8088H20.8087H20.8085H20.8084H20.8082H20.808H20.8079H20.8077H20.8075H20.8074H20.8072H20.8071H20.8069H20.8067H20.8066H20.8064H20.8062H20.806H20.8059H20.8057H20.8055H20.8054H20.8052H20.805H20.8049H20.8047H20.8045H20.8043H20.8042H20.804H20.8038H20.8036H20.8035H20.8033H20.8031H20.8029H20.8027H20.8026H20.8024H20.8022H20.802H20.8018H20.8017H20.8015H20.8013H20.8011H20.8009H20.8007H20.8006H20.8004H20.8002H20.8H20.7998H20.7996H20.7994H20.7992H20.7991H20.7989H20.7987H20.7985H20.7983H20.7981H20.7979H20.7977H20.7975H20.7973H20.7971H20.7969H20.7967H20.7965H20.7964H20.7962H20.796H20.7958H20.7956H20.7954H20.7952H20.795H20.7948H20.7946H20.7944H20.7942H20.794H20.7938H20.7936H20.7934H20.7932H20.793H20.7928H20.7926H20.7923H20.7921H20.7919H20.7917H20.7915H20.7913H20.7911H20.7909H20.7907H20.7905H20.7903H20.7901H20.7899H20.7897H20.7894H20.7892H20.789H20.7888H20.7886H20.7884H20.7882H20.788H20.7878H20.7875H20.7873H20.7871H20.7869H20.7867H20.7865H20.7863H20.786H20.7858H20.7856H20.7854H20.7852H20.785H20.7848H20.7845H20.7843H20.7841H20.7839H20.7837H20.7834H20.7832H20.783H20.7828H20.7826H20.7823H20.7821H20.7819H20.7817H20.7815H20.7812H20.781H20.7808H20.7806H20.7804H20.7801H20.7799H20.7797H20.7795H20.7792H20.779H20.7788H20.7786H20.7783H20.7781H20.7779H20.7777H20.7774H20.7772H20.777H20.7768H20.7765H20.7763H20.7761H20.7758H20.7756H20.7754H20.7752H20.7749H20.7747H20.7745H20.7742H20.774H20.7738H20.7736H20.7733H20.7731H20.7729H20.7726H20.7724H20.7722H20.7719H20.7717H20.7715H20.7713H20.771H20.7708H20.7706H20.7703H20.7701H20.7699H20.7696H20.7694H20.7692H20.7689H20.7687H20.7685H20.7682H20.768H20.7678H20.7675H20.7673H20.7671H20.7668H20.7666H20.7664H20.7661H20.7659H20.7657H20.7654H20.7652H20.7649H20.7647H20.7645H20.7642H20.764H20.7638H20.7635H20.7633H20.7631H20.7628H20.7626H20.7624H20.7621H20.7619H20.7616H20.7614H20.7612H20.7609H20.7607H20.7605H20.7602H20.76H20.7598H20.7595H20.7593H20.759H20.7588H20.7586H20.7583H20.7581H20.7579H20.7576H20.7574H20.7572H20.7569H20.7567H20.7564H20.7562H20.756H20.7557H20.7555H20.7553H20.755H20.7548H20.7545H20.7543H20.7541H20.7538H20.7536H20.7534H20.7531H20.7529H20.7526H20.7524H20.7522H20.7519H20.7517H20.7515H20.7512H20.751H20.7507H20.7505H20.7503H20.75H20.7498H20.7496H20.7493H20.7491H20.7489H20.7486H20.7484H20.7481H20.7479H20.7477H20.7474H20.7472H20.747H20.7467H20.7465H20.7463H20.746H20.7458H20.7456H20.7453H20.7451H20.7448H20.7446H20.7444H20.7441H20.7439H20.7437H20.7434H20.7432H20.743H20.7427H20.7425H20.7423H20.742H20.7418H20.7416H20.7413H20.7411H20.7409H20.7406H20.7404H20.7402H20.7399H20.7397H20.7395H20.7392H20.739H20.7388H20.7385H20.7383H20.7381H20.7379H20.7376H20.7374H20.7372H20.7369H20.7367H20.7365H20.7362H20.736H20.7358H20.7356H20.7353H20.7351H20.7349H20.7346H20.7344H20.7342H20.734H20.7337H20.7335H20.7333H20.7331H20.7328H20.7326H20.7324H20.7321H20.7319H20.7317H20.7315H20.7312H20.731H20.7308H20.7306H20.7304H20.7301H20.7299H20.7297H20.7295H20.7292H20.729H20.7288H20.7286H20.7283H20.7281H20.7279H20.7277H20.7275H20.7272H20.727H20.7268H20.7266H20.7264H20.7261H20.7259H20.7257H20.7255H20.7253H20.7251H20.7248H20.7246H20.7244H20.7242H20.724H20.7238H20.7236H20.7233H20.7231H20.7229H20.7227H20.7225H20.7223H20.7221H20.7218H20.7216H20.7214H20.7212H20.721H20.7208H20.7206H20.7204H20.7202H20.72H20.7197H20.7195H20.7193H20.7191H20.7189H20.7187H20.7185H20.7183H20.7181H20.7179H20.7177H20.7175H20.7173H20.7171H20.7169H20.7167H20.7165H20.7163H20.7161H20.7159H20.7157H20.7155H20.7153H20.7151H20.7149H20.7147H20.7145H20.7143H20.7141H20.7139H20.7137H20.7135H20.7133H20.7131H20.7129H20.7127H20.7125H20.7123H20.7121H20.7119H20.7117H20.7115H20.7114H20.7112H20.711H20.7108H20.7106H20.7104H20.7102H20.71H20.7099H20.7097H20.7095H20.7093H20.7091H20.7089H20.7087H20.7086H20.7084H20.7082H20.708H20.7078H20.7076H20.7075H20.7073H20.7071H20.7069H20.7068H20.7066H20.7064H20.7062H20.706H20.7059H20.7057H20.7055H20.7053H20.7052H20.705H20.7048H20.7047H20.7045H20.7043H20.7041H20.704H20.7038H20.7036H20.7035H20.7033H20.7031H20.703H20.7028H20.7026H20.7025H20.7023H20.7022H20.702H20.7018H20.7017H20.7015H20.7014H20.7012H20.701ZM20.7417 10.4882L20.7416 10.4881L20.7382 10.4916C20.7312 10.4986 20.7256 10.5042 20.7202 10.5092C20.7182 10.5111 20.7164 10.5128 20.7148 10.5142L18.3927 10.2464C18.1733 10.2153 17.9872 10.2803 17.8115 10.3978L17.8114 10.3976L17.8056 10.4021L17.5631 10.5914C17.563 10.5914 17.5629 10.5915 17.5628 10.5916C16.5159 11.3997 15.7847 12.3673 15.2926 13.4412H12.6188C13.2805 10.2446 14.3458 7.26901 15.5791 5.08668C16.2036 3.98166 16.8689 3.08399 17.5435 2.46384C18.2189 1.84285 18.8941 1.5085 19.5405 1.5085C19.6642 1.5085 19.8169 1.53353 19.9507 1.56033L22.2764 2.12361C22.2765 2.12379 22.2767 2.12397 22.2769 2.12415C22.2823 2.12957 22.2893 2.1375 22.2976 2.14858C22.3142 2.17082 22.3339 2.2028 22.3554 2.24583C22.3984 2.33182 22.446 2.4563 22.4903 2.62247C22.5788 2.95447 22.6522 3.44662 22.6522 4.1167C22.6522 5.40419 22.3847 6.80886 22.0092 7.98957C21.8216 8.57964 21.6076 9.11185 21.3878 9.54404C21.1671 9.9783 20.9442 10.3041 20.7417 10.4882Z" fill="#505050" stroke="#505050" stroke-width="0.2"/>
</g>
<defs>
<clipPath id="clip0">
<rect width="39" height="40" fill="white" transform="translate(0 0.000244141)"/>
</clipPath>
</defs>
</svg>
