<svg width="17" height="22" viewBox="0 0 17 22" fill="#B2114E" xmlns="http://www.w3.org/2000/svg">
<path d="M3.17953 22V17.92H0.569531V15.97H3.17953V13.3H0.569531V11.02H3.17953V0.579999H8.81953C11.4395 0.579999 13.3795 1.11 14.6395 2.17C15.9195 3.23 16.5595 4.77 16.5595 6.79C16.5595 8.83 15.8695 10.43 14.4895 11.59C13.1095 12.73 11.0795 13.3 8.39953 13.3H5.87953V15.97H10.8295V17.92H5.87953V22H3.17953ZM5.87953 11.02H8.00953C9.82953 11.02 11.2395 10.72 12.2395 10.12C13.2595 9.52 13.7695 8.44 13.7695 6.88C13.7695 5.52 13.3495 4.51 12.5095 3.85C11.6695 3.19 10.3595 2.86 8.57953 2.86H5.87953V11.02Z"/>
</svg>
