<svg width="72" height="73" viewBox="0 0 72 73" fill="none" xmlns="http://www.w3.org/2000/svg">
<circle cx="36" cy="36.9839" r="35" stroke="#B1104E" stroke-width="2"/>
<path d="M35.5 56.0005C45.6962 56.0005 54 47.6172 54 37.3234C54 33.4454 52.842 29.7671 50.6954 26.659L53.1244 24.1782L48.4641 19.4733L46.0351 21.9541C43.6626 20.2717 40.9229 19.2167 38.042 18.7889V17.4202H39.8779V13.0005H31.1221V17.4488H32.9298V18.8175C28.9473 19.3592 25.3038 21.2127 22.4229 24.1212C18.9206 27.6285 17 32.3334 17 37.3234C17 47.6172 25.3038 56.0005 35.5 56.0005ZM48.4924 21.5834L51.0626 24.1782L49.8198 25.4614C49.4244 25.0051 49.029 24.5489 48.6053 24.0927C48.1817 23.6649 47.7298 23.2372 47.2496 22.838L48.4924 21.5834ZM32.5908 15.966V14.4832H38.4092V15.966H36.6015V18.6464C36.2344 18.6179 35.8672 18.6179 35.5 18.6179C35.1328 18.6179 34.7656 18.6464 34.3985 18.6464V15.966H32.5908ZM23.4679 25.1477C26.6878 21.897 30.9527 20.1006 35.5282 20.1006C40.0756 20.1006 44.3687 21.897 47.5886 25.1477C50.8084 28.3984 52.5878 32.7041 52.5878 37.3234C52.5878 46.8188 44.9336 54.5177 35.5565 54.5177C26.1511 54.5177 18.5252 46.7903 18.5252 37.3234C18.4687 32.7041 20.2481 28.3984 23.4679 25.1477Z" fill="#B1104E"/>
<path d="M23.2645 38.0005C23.2645 44.6202 28.8097 50.0005 35.6323 50.0005C42.4548 50.0005 48 44.6202 48 38.0005C48 31.3808 42.4548 26.0005 35.6323 26.0005H34.8774V27.6343V28.1132V28.592V36.9301V37.6625C34.8774 38.0568 35.2258 38.3949 35.6323 38.3949C36.0387 38.3949 36.3871 38.0568 36.3871 37.6625V36.9301V28.5639V27.6343V27.4934C42.0484 27.8596 46.5194 32.4512 46.5194 38.0005C46.5194 43.8033 41.6419 48.5357 35.6613 48.5357C29.6806 48.5357 24.8032 43.8033 24.8032 38.0005V35.9441L25.7903 37.4934L27.0677 36.7329L25.3258 34.0287L24.0484 32.0005L21 36.7329L22.2774 37.4934L23.2645 35.9441V38.0005Z" fill="#B1104E"/>
</svg>
