<svg width="73" height="73" viewBox="0 0 73 73" fill="none" xmlns="http://www.w3.org/2000/svg">
<circle cx="36.998" cy="36.9893" r="35" stroke="#B1104E" stroke-width="2"/>
<path d="M30.8965 37.6632C28.9527 31.7732 30.9743 25.5732 35.484 21.7757C33.6957 21.6982 31.8296 21.8532 29.9635 22.4732C22.1881 24.9532 17.9894 33.3232 20.4775 40.9957C22.9657 48.7457 31.3631 52.9307 39.0607 50.4507C40.9268 49.8307 42.4819 48.9007 43.8814 47.8157C38.1276 47.4282 32.7626 43.6307 30.8965 37.6632Z" stroke="#B1104E" stroke-width="2" stroke-miterlimit="10" stroke-linejoin="round"/>
<path d="M39.4492 28.5957L40.771 31.2307L43.3369 32.4707L40.771 33.7882L39.4492 36.3457L38.1274 33.7882L35.5615 32.4707L38.1274 31.2307L39.4492 28.5957Z" stroke="#B1104E" stroke-width="2" stroke-miterlimit="10" stroke-linejoin="round"/>
<path d="M49.5573 23.1709L51.1124 26.2709L54.2225 27.8209L51.1124 29.3709L49.5573 32.4709L48.0022 29.3709L44.8921 27.8209L48.0022 26.2709L49.5573 23.1709Z" stroke="#B1104E" stroke-width="2" stroke-miterlimit="10" stroke-linejoin="round"/>
<path d="M47.2246 36.3457V40.9957" stroke="#B1104E" stroke-width="2" stroke-miterlimit="10" stroke-linejoin="round"/>
<path d="M49.5573 38.6709H44.8921" stroke="#B1104E" stroke-width="2" stroke-miterlimit="10" stroke-linejoin="round"/>
</svg>
