<svg width="73" height="73" viewBox="0 0 73 73" fill="none" xmlns="http://www.w3.org/2000/svg">
<path d="M72 36.9946C72 56.3277 56.3294 72 36.999 72C17.6686 72 1.99805 56.3277 1.99805 36.9946C1.99805 17.6616 17.6686 1.98926 36.999 1.98926C56.3294 1.98926 72 17.6616 72 36.9946Z" stroke="#B1104E" stroke-width="2"/>
<path d="M42.3157 57.0086C40.8509 57.0086 22.0286 53.8415 19.9046 53.4192C18.0737 53.1376 16.6821 51.0262 16.6821 48.5629C16.6821 45.818 18.2934 43.6362 20.3441 43.6362C20.637 43.6362 20.93 43.7066 21.2229 43.777C30.0116 46.8738 43.2678 51.5189 43.2678 51.5189C44.4396 51.8708 45.2452 52.9969 45.2452 54.1934C45.2452 55.7417 43.9269 57.0086 42.3157 57.0086ZM20.3441 45.0438C19.1722 45.0438 18.1469 46.6626 18.1469 48.5629C18.1469 50.3224 19.0258 51.8708 20.1243 52.0819C28.4736 53.4896 41.2903 55.601 42.3157 55.601C43.1213 55.601 43.7805 54.9675 43.7805 54.1934C43.7805 53.5599 43.4143 53.0673 42.8284 52.8561C42.8284 52.8561 29.5721 48.211 20.7835 45.1142C20.637 45.0438 20.4905 45.0438 20.3441 45.0438Z" fill="#B1104E"/>
<path d="M44.3664 56.1642L43.3411 55.1789L52.8621 46.0294C53.1551 45.7478 53.3016 45.3959 53.3016 45.044C53.3016 43.9883 52.2762 43.7068 52.2762 43.7068L47.3692 41.9473C41.2904 39.8358 35.0651 37.654 30.3046 35.9649C30.1581 35.8945 30.0116 35.8945 29.8652 35.8945C29.3525 35.8945 28.9863 36.176 28.7666 36.3872L19.2456 45.5367L18.2202 44.5514L27.7412 35.4019C28.6201 34.5573 29.7919 34.2758 30.8173 34.6277C35.651 36.3168 41.8763 38.4986 47.8819 40.61L52.7889 42.2992C53.448 42.5103 54.8396 43.2845 54.8396 44.9737C54.8396 45.7478 54.5466 46.4516 53.9607 46.9443L44.3664 56.1642Z" fill="#B1104E"/>
<path d="M35.2116 47.2966L27.8145 44.6221L34.113 38.5693L41.5101 41.2438L35.2116 47.2966ZM30.451 44.059L34.7721 45.6074L38.727 41.8069L34.4059 40.2585L30.451 44.059Z" fill="#B1104E"/>
<path d="M40.1186 46.4517H38.6538V47.8593H40.1186V46.4517Z" fill="#B1104E"/>
<path d="M42.3158 44.3403H40.8511V45.7479H42.3158V44.3403Z" fill="#B1104E"/>
<path d="M44.5131 42.229H43.0483V43.6366H44.5131V42.229Z" fill="#B1104E"/>
<path d="M43.7807 47.8594H42.3159V49.267H43.7807V47.8594Z" fill="#B1104E"/>
<path d="M45.978 45.748H44.5132V47.1557H45.978V45.748Z" fill="#B1104E"/>
<path d="M48.1752 43.6362H46.7104V45.0439H48.1752V43.6362Z" fill="#B1104E"/>
<path d="M36.9697 28.575L35.7246 27.8008C36.0908 27.3082 36.5302 26.8859 37.1161 26.534L41.2908 24.141C42.3893 23.5076 43.7076 23.2261 44.5133 23.2261C46.7837 23.2261 58.0624 26.1117 58.5019 26.2525L58.1357 27.5897C54.9132 26.7451 46.271 24.6337 44.5133 24.6337C43.9273 24.6337 42.8288 24.8448 42.0964 25.2671L37.9218 27.7304C37.5556 27.9416 37.1894 28.2231 36.9697 28.575Z" fill="#B1104E"/>
<path d="M41.6566 35.8943C40.4848 35.8943 39.3862 35.1201 39.3862 33.7828C39.3862 32.8679 39.9721 32.0937 40.9242 31.7418L48.3946 28.645L48.9805 29.9119L41.4369 33.079C40.9975 33.2198 40.851 33.4309 40.851 33.7828C40.851 34.2755 41.2904 34.4866 41.5834 34.4866C41.5834 34.4866 47.3693 33.994 49.0537 33.5717C50.5185 33.2198 51.7636 32.8679 52.7889 32.516C54.2537 32.0937 55.4255 31.6714 56.817 31.601L56.8903 33.0086C55.7185 33.079 54.6199 33.4309 53.2284 33.8532C52.1298 34.2051 50.8847 34.557 49.3467 34.9089C47.6622 35.3312 41.8763 35.8943 41.6566 35.8943Z" fill="#B1104E"/>
<path d="M48.6142 41.6658L47.2227 41.1731L49.786 34.9092C49.8593 34.6981 49.8593 34.4869 49.8593 34.2758C49.8593 34.2054 49.8593 34.0647 49.8593 33.9943L51.324 33.8535C51.324 33.9943 51.324 34.135 51.324 34.2758C51.324 34.6277 51.2508 35.05 51.1043 35.4019L48.6142 41.6658Z" fill="#B1104E"/>
<path d="M32.5019 36.0352L31.1104 35.5425L33.3808 29.5602C33.8934 28.2933 35.1385 27.4487 36.53 27.4487C36.8962 27.4487 37.3356 27.5191 37.7018 27.6599L45.1722 30.264L44.6595 31.6012L37.1892 28.9971C36.2371 28.6452 35.1385 29.1379 34.7723 30.0528L32.5019 36.0352Z" fill="#B1104E"/>
<path d="M33.1982 32.0832L32.6953 33.4053L37.5791 35.1208L38.082 33.7987L33.1982 32.0832Z" fill="#B1104E"/>
<path d="M32.1283 35.5389L22.5928 44.6895L23.6278 45.6855L33.1634 36.535L32.1283 35.5389Z" fill="#B1104E"/>
<path d="M22.1528 47.1262L21.6499 48.4482L28.047 50.6953L28.5498 49.3733L22.1528 47.1262Z" fill="#B1104E"/>
<path d="M30.1213 49.9372L29.6182 51.2593L30.9251 51.7186L31.4282 50.3966L30.1213 49.9372Z" fill="#B1104E"/>
<path d="M23.3873 24.4666L22.3516 25.4619L26.132 29.0949L27.1678 28.0995L23.3873 24.4666Z" fill="#B1104E"/>
<path d="M32.0624 21.8188H30.5977V26.7455H32.0624V21.8188Z" fill="#B1104E"/>
<path d="M24.7385 32.3755H19.6118V33.7831H24.7385V32.3755Z" fill="#B1104E"/>
<path d="M18.1469 32.3755H16.6821V33.7831H18.1469V32.3755Z" fill="#B1104E"/>
<path d="M32.0624 19.0034H30.5977V20.411H32.0624V19.0034Z" fill="#B1104E"/>
<path d="M20.4518 21.6302L19.416 22.6255L20.9178 24.0687L21.9536 23.0734L20.4518 21.6302Z" fill="#B1104E"/>
</svg>
