<svg width="72" height="73" viewBox="0 0 72 73" fill="none" xmlns="http://www.w3.org/2000/svg">
<circle cx="36" cy="36.9893" r="35" stroke="#B1104E" stroke-width="2"/>
<path d="M48.2016 23.1752C47.2382 22.9183 46.3711 23.0789 45.504 23.0467C44.958 23.0146 44.8938 22.9504 44.8617 22.4044C44.8617 22.2439 44.8617 22.0833 44.8617 21.9548C44.8938 21.3125 44.958 21.2162 45.5361 21.2162C46.5638 21.2162 47.5915 21.2162 48.6191 21.2162C49.9358 21.2162 50.0001 21.0877 50.0001 22.5329C50.0001 33.2272 50.0001 43.8893 50.0001 54.5836C50.0001 54.8405 50.0001 55.0974 50.0001 55.3543C50.0001 55.7397 49.7432 55.9003 49.3899 55.9003C49.0687 55.9003 48.7797 55.9003 48.4586 55.9003C39.8197 55.9003 31.2129 55.9003 22.574 55.9003C22.2207 55.9003 21.8674 55.9003 21.4821 55.9003C21.193 55.9003 21.0003 55.7397 21.0003 55.4185C21.0003 55.0332 21.0003 54.6478 21.0003 54.2945C21.0003 43.7608 21.0003 33.2272 21.0003 22.7256C21.0003 20.9914 20.9361 21.2162 22.6061 21.1841C23.5695 21.1841 24.5651 21.1841 25.5285 21.1841C25.7533 21.1841 26.0102 21.2162 26.0424 21.4089C26.1066 21.8585 26.0745 22.3402 26.0424 22.7898C26.0424 22.8862 25.8176 22.9825 25.6891 23.0146C24.8541 23.0467 24.0512 23.0467 23.2163 23.0467C22.9915 23.0467 22.8309 23.1752 22.7988 23.4C22.7666 23.7212 22.7666 24.0102 22.7666 24.3313C22.7666 33.7731 22.7666 43.2149 22.7666 52.6888C22.7666 54.0376 22.7666 54.0697 24.1155 54.0697C31.6625 54.0697 39.2095 54.0697 46.7565 54.0697C47.0134 54.0697 47.2703 54.0697 47.5272 54.0697C47.9768 54.0376 48.1053 53.877 48.1374 53.3953C48.1374 53.1384 48.1374 52.8815 48.1374 52.6246C48.1374 43.2149 48.1374 33.8373 48.1374 24.4277C48.2016 23.9781 48.2016 23.5927 48.2016 23.1752Z" fill="#B1104E"/>
<path d="M43.0312 25.1665C38.0212 25.1665 33.0113 25.1665 28.0335 25.1665C27.9693 25.0381 27.8729 24.9417 27.8729 24.8454C27.8729 23.1112 27.8408 21.377 27.8408 19.6107C27.8408 19.0968 27.9372 19.0005 28.4831 19.0005C30.1852 19.0005 31.8552 19.0005 33.5573 19.0005C36.544 19.0005 39.4985 19.0005 42.4852 19.0005C42.8064 19.0005 43.0954 19.0326 43.1275 19.4501C43.2239 20.1245 43.1275 24.3637 43.0312 25.1665ZM35.5163 20.8632C35.5163 20.8632 35.5163 20.831 35.5163 20.8632C35.1951 20.8632 34.9061 20.8632 34.5849 20.8632C33.204 20.8632 31.8231 20.8632 30.4421 20.8632C29.7356 20.8632 29.7035 20.9274 29.6714 21.666C29.6714 21.9872 29.6714 22.2762 29.6714 22.5974C29.6714 22.6616 29.6714 22.6937 29.6714 22.7579C29.7035 23.3039 29.7677 23.4002 30.3137 23.4002C33.3967 23.4002 36.4797 23.4323 39.5628 23.4002C41.6181 23.4002 41.297 23.6893 41.3291 21.6018C41.3291 21.5376 41.3291 21.5054 41.3291 21.4412C41.3291 21.0558 41.1685 20.8953 40.7831 20.8953C38.9847 20.8632 37.2505 20.8632 35.5163 20.8632Z" fill="#B1104E"/>
<path d="M35.5167 45.3991C32.9475 45.3991 30.3783 45.3991 27.8091 45.3991C27.4558 45.3991 27.1026 45.3991 26.7172 45.3991C26.3318 45.367 26.2676 45.2064 26.2676 44.4357C26.2676 43.7934 26.3639 43.6007 26.6851 43.6007C27.1026 43.5686 27.5201 43.6007 27.9054 43.6007C32.9475 43.6007 37.9574 43.6007 42.9994 43.6007C43.3206 43.6007 43.6096 43.6007 43.9308 43.6007C44.6373 43.6328 44.7015 43.697 44.7015 44.4036C44.7015 44.4678 44.7015 44.4999 44.7015 44.5641C44.7015 45.367 44.6373 45.4312 43.8344 45.4312C41.0725 45.3991 38.2785 45.3991 35.5167 45.3991Z" fill="#B1104E"/>
<path d="M44.4765 39.4256C44.7013 39.6825 44.7013 39.9394 44.7013 40.1963C44.7013 41.1919 44.7013 41.224 43.6736 41.224C38.1177 41.224 32.594 41.224 27.0381 41.224C26.8454 41.224 26.6527 41.1919 26.4921 41.1598C26.2673 40.9028 26.2994 40.6459 26.2994 40.389C26.2994 39.3934 26.2994 39.3613 27.3271 39.3613C32.8188 39.3613 38.3104 39.3613 43.802 39.3613C44.0269 39.3613 44.2838 39.3934 44.4765 39.4256Z" fill="#B1104E"/>
<path d="M33.8146 33.2918C32.8511 33.2918 31.984 33.2918 31.149 33.2918C30.8921 34.0304 31.0206 34.7049 30.9885 35.3793C30.9564 36.0537 30.86 36.15 30.1535 36.15C29.9608 36.15 29.736 36.15 29.5433 36.1179C29.447 36.1179 29.3506 36.0537 29.1579 35.9895C29.1579 35.315 29.1258 34.6085 29.1258 33.902C29.1258 33.5487 28.9331 33.3239 28.5477 33.3239C27.9376 33.3239 27.3274 33.3239 26.7172 33.2918C26.5887 33.2918 26.396 33.1955 26.3639 33.067C26.2355 32.6174 26.2355 32.1678 26.3639 31.7182C26.396 31.5897 26.5245 31.4934 26.7172 31.4934C27.3274 31.4934 27.9376 31.4934 28.5477 31.4613C28.901 31.4613 29.1258 31.3007 29.1258 30.9153C29.1258 30.2088 29.1258 29.5022 29.1258 28.8599C29.447 28.603 29.7039 28.603 29.9608 28.603C30.9564 28.603 30.9564 28.603 30.9885 29.6307C31.0206 30.2409 30.7958 30.8511 31.1812 31.397C31.7271 31.4291 32.3052 31.4291 32.8511 31.4613C33.0117 31.4613 33.1723 31.4613 33.3007 31.4934C33.5898 31.5255 33.7825 31.6861 33.7825 31.9751C33.8146 32.3605 33.8146 32.778 33.8146 33.2918Z" fill="#B1104E"/>
<path d="M26.4918 49.4776C26.2349 49.1565 26.2991 48.8353 26.2991 48.5463C26.2991 47.7434 26.3312 47.6792 27.1662 47.6792C29.9923 47.6792 32.8184 47.6792 35.6446 47.6792C36.5438 47.6792 36.5759 47.7113 36.5438 48.6748C36.5438 48.8353 36.5438 48.9959 36.5117 49.1244C36.4795 49.3492 36.3511 49.4776 36.1263 49.5097C35.9336 49.5097 35.7088 49.5419 35.5161 49.5419C32.69 49.5419 29.8639 49.5419 27.0378 49.5419C26.8451 49.5419 26.6524 49.5097 26.4918 49.4776Z" fill="#B1104E"/>
</svg>
