<svg width="73" height="73" viewBox="0 0 73 73" fill="none" xmlns="http://www.w3.org/2000/svg">
<circle cx="36.998" cy="36.9893" r="35" stroke="#B1104E" stroke-width="2"/>
<path d="M38.1 59.1159L36.1615 57.9901C31.2346 55.2558 18.15 48.018 17.9077 47.8572C16.1308 46.8922 15 44.9621 15 42.9516C15 38.3677 18.6346 33.5425 22.8346 27.9131C24.8538 25.1789 27.0346 22.2838 28.8923 19.2278L29.2962 18.5845L42.6231 25.9831L41.8154 27.3502L29.7808 20.6754C28.0038 23.5705 25.9846 26.2243 24.0462 28.7978C20.0885 34.2663 16.6154 38.9306 16.6154 42.9516C16.6154 44.3992 17.4231 45.7663 18.7154 46.4901C18.7154 46.4901 18.7962 46.4901 36.9692 56.6229L38.9077 57.7488L38.1 59.1159Z" fill="#B1104E"/>
<path d="M40.8462 59.8398C37.6962 59.8398 35.1924 57.3468 35.1924 54.2104C35.1924 49.6265 38.827 44.8013 43.027 39.172C44.8847 36.5985 46.9039 34.0251 48.6001 31.2104L43.9155 28.5566L44.7232 27.1895L50.9424 30.6475L50.5385 31.3713C48.6001 34.5076 46.5001 37.4027 44.4001 40.137C40.2808 45.5251 36.8078 50.1895 36.8078 54.2104C36.8078 56.4622 38.5847 58.2314 40.8462 58.2314C43.2693 58.2314 45.2885 57.2664 47.9539 54.7734C48.0347 54.693 48.1155 54.6125 48.1155 54.4517C48.1155 54.2909 48.0347 54.13 47.8732 54.0496L41.4924 50.4307L42.3001 49.0636L48.6808 52.6825C49.327 53.0041 49.7308 53.7279 49.7308 54.4517C49.7308 55.0146 49.4885 55.5776 49.0847 55.8992C46.0962 58.7139 43.6732 59.8398 40.8462 59.8398Z" fill="#B1104E"/>
<path d="M51.9117 36.518C51.4271 36.518 50.9425 36.3571 50.4578 36.1159L47.4694 34.4271L48.2771 33.0599L51.2655 34.7487C51.8309 35.0704 52.5578 34.9096 52.9617 34.4271L55.2232 31.4515C55.3848 31.2907 55.3848 31.0494 55.3848 30.8886C55.3848 30.5669 55.2232 30.2452 54.9001 30.0844L28.4886 15.7697C28.3271 15.6893 28.0848 15.6089 27.9232 15.6089C27.5194 15.6089 27.1963 15.8501 27.0348 16.1718L25.5809 18.8257C25.5809 18.9061 25.5002 19.1473 25.5002 19.3082C25.5002 19.7103 25.7425 20.1124 26.0655 20.2732L28.2463 21.4795L27.4386 22.8466L25.2578 21.6403C24.4502 21.2383 23.8848 20.2732 23.8848 19.3082C23.8848 18.8257 23.9655 18.4236 24.2078 18.0215L25.6617 15.3676C26.0655 14.5634 26.954 14.0005 27.9232 14.0005C28.4078 14.0005 28.8925 14.0809 29.2155 14.3222L55.6271 28.5564C56.4348 29.039 56.9194 29.8431 56.9194 30.8082C56.9194 31.3711 56.7578 31.9341 56.4348 32.3362L54.1732 35.3117C53.6886 36.1159 52.8001 36.518 51.9117 36.518Z" fill="#B1104E"/>
<path d="M30.9547 23.9025L30.1719 25.3096L39.4279 30.4148L40.2107 29.0078L30.9547 23.9025Z" fill="#B1104E"/>
<path d="M42.1415 30.1013L41.3589 31.5083L44.2558 33.1058L45.0385 31.6988L42.1415 30.1013Z" fill="#B1104E"/>
<path d="M28.6367 27.176L27.854 28.583L32.376 31.0767L33.1587 29.6696L28.6367 27.176Z" fill="#B1104E"/>
<path d="M26.1484 30.323L25.3657 31.73L34.6924 36.8731L35.4751 35.4661L26.1484 30.323Z" fill="#B1104E"/>
<path d="M37.4049 36.5302L36.6221 37.937L39.448 39.4959L40.2308 38.089L37.4049 36.5302Z" fill="#B1104E"/>
<path d="M23.7812 33.6159L22.9985 35.0229L36.918 42.6987L37.7006 41.2917L23.7812 33.6159Z" fill="#B1104E"/>
<path d="M21.3881 36.7946L20.6055 38.2017L26.5407 41.4746L27.3233 40.0676L21.3881 36.7946Z" fill="#B1104E"/>
<path d="M29.2742 41.16L28.4912 42.5669L30.6107 43.7363L31.3937 42.3294L29.2742 41.16Z" fill="#B1104E"/>
<path d="M33.2639 43.3768L32.481 44.7837L34.6711 45.9921L35.454 44.5852L33.2639 43.3768Z" fill="#B1104E"/>
<path d="M27.6241 46.799L26.8413 48.2061L32.2112 51.1679L32.994 49.7609L27.6241 46.799Z" fill="#B1104E"/>
<path d="M26.8134 54.6841L26.0239 56.0874L33.0006 59.9782L33.79 58.5749L26.8134 54.6841Z" fill="#B1104E"/>
</svg>
