<svg width="72" height="73" viewBox="0 0 72 73" fill="none" xmlns="http://www.w3.org/2000/svg">
<circle cx="36" cy="36.9893" r="35" stroke="#B1104E" stroke-width="2"/>
<path d="M40.6472 40.1608C40.6472 41.3974 40.2341 42.5654 38.9948 43.4585C38.3752 43.8707 35.8967 45.0387 34.864 45.7944C34.0379 46.344 33.6936 46.9623 33.6936 47.6493C33.6936 47.9242 33.7625 48.8173 34.9329 49.3669C35.4836 49.6417 37.4114 50.26 37.7556 50.4661C38.8571 51.1532 39.2702 51.9089 39.2702 53.1455C39.2702 53.5577 38.9948 53.8325 38.5818 53.8325C38.1687 53.8325 37.8933 53.5577 37.8933 53.1455C37.8933 52.1837 37.4802 51.8402 37.0671 51.6341C36.8606 51.4967 34.9329 50.8783 34.3821 50.6035C33.5559 50.1913 32.3855 49.5043 32.3167 47.718C32.2478 46.5501 32.9363 45.5196 34.1067 44.6264C35.2771 43.802 37.7556 42.6341 38.2375 42.2906C39.0637 41.6722 39.2702 40.9852 39.2702 40.1608C39.2702 38.9929 37.9621 38.3745 37.5491 38.1684C36.7917 37.8936 34.7952 37.2753 33.3494 36.9318C32.179 36.657 28.6678 35.7638 28.6678 32.5348C28.6678 31.4356 29.4251 30.3364 30.5267 29.8554C31.5594 29.3745 32.6609 29.4432 33.4871 30.1303C33.7625 30.4051 33.8313 30.8173 33.5559 31.0921C33.2806 31.3669 32.8675 31.4356 32.5921 31.1608C32.0413 30.6799 31.284 30.9547 31.0775 31.0921C30.5267 31.3669 29.9759 31.9165 29.9759 32.5348C29.9759 34.4585 31.9036 35.2142 33.6248 35.6264C35.1394 36.0387 37.136 36.5883 37.9621 36.9318C38.6506 37.1379 40.6472 38.0997 40.6472 40.1608ZM33.3494 51.1532C33.0052 51.6341 32.7986 52.3211 32.7986 53.0768C32.7986 53.489 33.074 53.7638 33.4871 53.7638C33.9002 53.7638 34.1756 53.489 34.1756 53.0768C34.1756 52.3211 34.3821 51.9776 34.6575 51.7715C34.2444 51.6341 33.6936 51.428 33.3494 51.1532ZM35.2771 52.0463V54.3135C35.2771 54.7257 35.5525 55.0005 35.9656 55.0005C36.3787 55.0005 36.654 54.7257 36.654 54.3135V52.5959C36.5164 52.4585 35.4836 52.115 35.2771 52.0463ZM35.2771 48.3364C35.4148 48.4051 36.241 48.6799 36.654 48.886V45.9318C36.241 46.1379 35.6213 46.5501 35.2771 46.8249V48.3364ZM34.2444 38.2371C33.8313 38.0997 32.6609 37.8249 32.4544 37.7562C31.8348 38.3058 31.284 39.0616 31.284 40.1608C31.284 42.6341 33.1429 43.5959 33.4871 43.802C33.969 43.4585 34.3821 43.1837 34.864 42.9776C33.2806 42.2219 32.6609 41.4661 32.6609 40.1608C32.6609 39.0616 33.7625 38.4432 34.2444 38.2371ZM37.4114 49.0921C37.7556 49.2295 38.4441 49.5043 38.7194 49.7791C39.2014 49.2982 39.6145 48.6112 39.6145 47.6493C39.6833 46.6188 39.2014 45.7257 38.3064 44.97C38.1687 45.0387 37.2737 45.5196 36.9294 45.657C37.8244 46.2753 38.2375 46.8936 38.1687 47.5806C38.2375 47.9242 38.2375 48.6112 37.4114 49.0921ZM36.654 38.9242C36.3098 38.7867 35.8279 38.6493 35.2771 38.5119V42.7028C35.6213 42.4967 36.5164 42.0845 36.654 42.0158V38.9242ZM41.4045 29.7867C40.3718 29.3058 39.2702 29.3745 38.4441 30.0616C38.1687 30.3364 38.0998 30.7486 38.3752 31.0234C38.6506 31.2982 39.0637 31.3669 39.3391 31.0921C39.8898 30.6112 40.6472 30.886 40.8537 31.0234C41.4045 31.2982 41.9552 31.8478 41.9552 32.4661C41.9552 34.3898 39.9587 35.1455 37.8933 35.6951C38.7883 35.97 39.3391 36.3135 39.7522 36.5883C41.2668 36.1074 43.3322 35.0081 43.3322 32.4661C43.2633 31.4356 42.5749 30.3364 41.4045 29.7867ZM56 27.5196C55.9312 28.7562 54.0034 30.3364 51.8003 30.3364C51.8003 30.3364 51.1119 30.4051 50.2169 30.0616C49.7349 30.8173 48.7022 32.0539 46.8434 32.0539C46.1549 32.0539 45.3287 31.8478 44.5714 31.5043C44.5026 31.1608 44.296 30.6799 44.0207 30.2677C44.0207 30.2677 44.296 29.9929 44.4337 29.9242C45.6041 30.5425 46.2926 30.6799 46.9122 30.6799C48.4957 30.6799 49.3219 29.3058 49.5972 28.1379C50.5611 28.6875 51.1119 28.9623 51.8692 28.9623C53.1773 28.9623 54.1411 28.2066 54.4854 27.7257C52.3511 27.5196 50.7676 26.6951 48.9776 25.802C47.6007 25.115 46.2238 24.428 44.3649 23.8784C43.9518 23.7409 43.6076 23.6722 43.2633 23.6722C41.7487 23.6722 40.8537 24.9776 39.9587 26.3516C39.2014 27.5196 38.2375 28.8936 36.7917 29.1684V35.2829C36.3098 35.1455 35.8967 35.0081 35.4148 34.8707V29.0997C33.9002 28.8249 33.0052 27.4509 32.179 26.2829C31.284 24.9089 30.389 23.6035 28.8744 23.6035C28.5301 23.6035 28.117 23.6722 27.7728 23.8096C25.7762 24.4967 24.3993 25.1837 23.0224 25.802C21.2324 26.6951 19.6489 27.4509 17.5146 27.7257C17.8589 28.2066 18.8916 28.9623 20.1308 28.9623C21.1635 28.9623 22.0585 28.4127 22.4716 28.1379C22.8158 29.4432 23.642 30.6799 25.1566 30.6799C26.2582 30.6799 27.6351 29.9242 27.6351 29.9242C27.6351 29.9242 27.9793 30.2677 28.0482 30.3364C27.7728 30.7486 27.5663 31.2982 27.4974 31.573C26.6713 31.9165 25.8451 32.1226 25.1566 32.1226C23.2289 32.1226 22.2651 30.886 21.7831 30.1303C21.3012 30.3364 20.7504 30.4051 20.1997 30.4051C18.0654 30.4051 16.0688 28.8249 16 27.5883C16 27.1074 16.2754 26.5577 17.1015 26.489C19.167 26.3516 20.6816 25.5959 22.4716 24.7028C23.7797 24.0158 25.2943 23.3287 27.2909 22.6417C27.8417 22.5043 28.3236 22.3669 28.8055 22.3669C31.0775 22.3669 32.3167 24.2219 33.2806 25.6646C33.969 26.6264 34.5886 27.5883 35.346 27.8631V25.115C33.969 24.7715 32.9363 23.6035 32.9363 22.0921C32.8675 20.3745 34.3133 19.0005 35.9656 19.0005C37.6179 19.0005 39.0637 20.3745 39.0637 22.0921C39.0637 23.5348 38.031 24.7715 36.654 25.115V27.7944C37.4114 27.5883 38.031 26.6264 38.7194 25.5959C39.6833 24.0845 40.9225 22.2982 43.1945 22.2982C43.6764 22.2982 44.2272 22.3669 44.7091 22.573C46.6368 23.1913 48.1515 23.9471 49.5284 24.6341C51.3184 25.5272 52.833 26.2829 54.8985 26.4203C55.6558 26.489 56 26.97 56 27.5196ZM37.6867 22.0921C37.6867 21.1303 36.9294 20.3745 35.9656 20.3745C35.0017 20.3745 34.2444 21.1303 34.2444 22.0921C34.2444 23.0539 35.0706 23.8096 35.9656 23.8096C36.9294 23.8096 37.6867 23.0539 37.6867 22.0921Z" fill="#B1104E"/>
</svg>
