<svg width="72" height="73" viewBox="0 0 72 73" fill="none" xmlns="http://www.w3.org/2000/svg">
<circle cx="36" cy="36.9839" r="35" stroke="#B1104E" stroke-width="2"/>
<path d="M38.9793 26.8607H36.7649V29.0852H35.2886V26.8607H33.0742V25.3776H35.2886V23.153H36.7649V25.3776H38.9793V26.8607ZM35.8791 52.814C30.3431 52.814 25.6191 48.7357 25.25 42.6551C28.9407 39.17 29.4574 36.7229 29.9741 33.5344C33.0742 37.6869 35.9529 39.0217 40.7508 39.3924C43.7772 39.6149 45.3273 39.0217 46.0654 38.206C48.2798 45.992 42.8914 52.8882 35.8791 52.814ZM45.032 40.4306C43.4819 40.8755 41.7842 40.8755 40.677 40.8755C37.2078 40.8013 33.2957 39.3183 30.8598 36.7971C30.0479 39.6149 28.4978 41.5429 26.8001 43.1742C27.3168 47.7717 31.1551 51.2568 35.8791 51.2568C40.8985 51.331 45.6963 47.2526 45.032 40.4306ZM32.4837 41.9878C31.8194 41.9878 31.3027 42.5068 31.3027 43.1742C31.3027 43.8416 31.8194 44.3607 32.4837 44.3607C33.148 44.3607 33.6647 43.8416 33.6647 43.1742C33.6647 42.5068 33.148 41.9878 32.4837 41.9878ZM39.2007 41.9878C38.5364 41.9878 38.0197 42.5068 38.0197 43.1742C38.0197 43.8416 38.5364 44.3607 39.2007 44.3607C39.8651 44.3607 40.3818 43.8416 40.3818 43.1742C40.3818 42.5068 39.8651 41.9878 39.2007 41.9878ZM51.8228 27.0831L47.6893 34.1276C48.4274 35.3882 49.0918 36.7971 49.4608 38.3543C49.9037 39.9857 50.6418 45.3246 50.6418 47.2526C50.6418 49.403 49.9775 51.1827 48.7965 52.295C47.6893 53.3331 46.1392 54.0005 44.7368 54.0005C44.6629 54.0005 43.1867 54.0005 43.1867 54.0005C42.7438 54.0005 42.4485 53.7039 42.4485 53.259C42.4485 52.814 42.7438 52.5174 43.1867 52.5174H44.7368C45.7701 52.5174 46.9512 51.9984 47.7631 51.1827C48.6489 50.2929 49.1656 48.884 49.1656 47.1785C49.1656 45.4729 48.4274 40.134 48.0584 38.6509C47.6893 37.1679 47.025 35.759 46.2868 34.5725C45.2534 34.2759 40.5294 32.7929 36.0268 32.7929C31.5241 32.7929 27.0215 34.2759 25.7667 34.5725C25.0285 35.759 24.438 37.1679 23.9952 38.6509C23.5523 40.0598 23.0356 45.6213 23.0356 47.1785C23.0356 48.1424 23.1832 49.9963 24.438 51.1827C25.3238 51.9984 26.431 52.5174 27.5382 52.5174H28.8668C29.3097 52.5174 29.605 52.814 29.605 53.259C29.605 53.7039 29.3097 54.0005 28.8668 54.0005H27.5382C26.0619 54.0005 24.5119 53.3331 23.4046 52.2208C21.7808 50.6636 21.5593 48.3649 21.5593 47.1043C21.5593 45.3988 22.1498 39.7632 22.5927 38.206C23.0356 36.6488 23.6261 35.2399 24.3642 33.9793C23.8475 33.0895 20.7474 28.2696 20.2307 27.3797C19.8616 26.8607 19.9354 26.1191 20.4521 25.6742C24.6595 21.4475 30.3431 19.0005 36.0268 19.0005C42.0057 19.0005 47.5417 21.2251 51.6014 25.3035C52.0443 25.7484 52.1181 26.4899 51.8228 27.0831ZM50.568 26.3416C46.8773 22.634 41.6366 20.4835 36.0268 20.4835C30.4169 20.4835 25.1762 23.0047 21.4855 26.7124C22.5189 28.4179 24.438 31.3098 25.4714 33.1636C27.5382 32.7187 31.2289 31.3098 35.9529 31.3098C40.677 31.3098 44.4415 32.7187 46.4345 33.1636L50.568 26.3416Z" fill="#B1104E"/>
</svg>
