<svg width="73" height="73" viewBox="0 0 73 73" fill="none" xmlns="http://www.w3.org/2000/svg">
<circle cx="36.998" cy="36.9893" r="35" stroke="#B1104E" stroke-width="2"/>
<path d="M56.5641 33.4749C56.7234 33.9205 56.6437 34.3398 56.6437 34.7591C56.6437 37.0129 56.6437 39.2929 56.6437 41.5466C56.6437 41.7563 56.6437 41.966 56.6437 42.1756C56.6703 42.7522 56.6703 42.7784 57.2543 42.8832C57.5198 42.9356 57.7587 42.988 57.7587 43.3287C57.7587 44.7177 57.7587 46.0804 57.7587 47.4432C57.5729 47.4956 57.4401 47.5742 57.334 47.5742C55.8473 47.5742 54.3607 47.6004 52.874 47.5742C52.4493 47.5742 52.3962 47.5218 52.3431 47.0501C52.3165 46.7618 52.29 46.4735 52.2634 46.1852C51.998 44.5604 50.591 43.3287 48.945 43.1977C47.1929 43.0666 45.6266 44.1149 45.1223 45.7135C45.0426 46.0018 45.0161 46.2901 44.9364 46.5784C44.8568 46.8928 45.0692 47.3121 44.724 47.4956C44.4851 47.6266 44.14 47.548 43.848 47.548C39.1226 47.548 34.4237 47.548 29.6983 47.548C29.4329 47.548 29.1939 47.548 28.9285 47.5218C28.6895 47.4956 28.5568 47.3646 28.5568 47.1287C28.5568 46.9715 28.5568 46.788 28.5568 46.6308C28.5834 44.9535 27.0171 43.2239 25.026 43.1715C23.4332 43.119 21.5749 44.1411 21.2032 46.3425C21.1502 46.7094 21.1502 47.0763 21.1236 47.4432C20.7254 47.6528 20.3272 47.5742 19.9555 47.5742C18.814 47.5742 17.6725 47.5742 16.5044 47.5742C16.0796 47.5742 16 47.4956 16 47.0501C16 45.8446 16 44.6128 16 43.4073C16 43.0404 16.1593 42.857 16.5309 42.8832C16.9026 42.8832 17.0619 42.6997 17.0353 42.3328C17.0353 41.9922 17.0353 41.6515 17.0353 41.337C17.0353 36.2267 17.0353 31.1163 17.0353 25.9798C17.0353 24.4074 16.8761 24.617 18.4954 24.617C24.9995 24.617 31.5035 24.617 37.9811 24.617C38.4324 24.617 38.9102 24.617 39.3615 24.617C39.8394 23.4901 40.2641 22.4681 40.6889 21.4198C40.7951 21.1577 40.9543 21.0005 41.2464 21.0005C42.733 21.0005 44.2196 21.0005 45.7063 21.0005C46.0514 21.0005 46.2372 21.1839 46.3434 21.4984C46.6885 22.3895 47.0602 23.2805 47.4319 24.1715C47.5646 24.4598 47.7504 24.6432 48.0955 24.617C48.7327 24.5908 49.3698 24.617 50.0069 24.617C50.3786 24.617 50.6441 24.7219 50.7768 25.0888C51.0688 25.8225 51.3874 26.5563 51.6794 27.2901C52.4493 29.0984 53.2191 30.9329 53.9359 32.7411C54.1217 33.2129 54.3872 33.3963 54.8651 33.3701C55.5022 33.3701 56.0597 33.3177 56.5641 33.4749ZM49.6087 26.1632C49.2636 26.137 48.9716 26.1108 48.6796 26.1108C46.8213 26.1108 44.9364 26.1108 43.0781 26.1108C41.9366 26.1108 41.9897 26.006 41.9897 27.2115C41.9897 32.1908 41.9897 37.1963 41.9897 42.1756C41.9897 42.5163 41.9897 42.857 41.9897 43.1715C41.9897 43.4597 41.8835 43.6694 41.5649 43.6694C40.5827 43.6694 40.4765 43.8266 40.503 42.6735C40.503 39.1094 40.503 35.5453 40.503 31.9811C40.503 30.3039 40.503 28.6267 40.503 26.9494C40.503 26.1108 40.503 26.1108 39.6535 26.1108C39.5208 26.1108 39.3881 26.1108 39.2819 26.1108C32.8309 26.1108 26.3799 26.1108 19.929 26.1108C19.6635 26.1108 19.4246 26.1108 19.1591 26.1108C18.7344 26.137 18.6813 26.1894 18.6547 26.6612C18.6547 27.0281 18.6547 27.4212 18.6547 27.7881C18.6547 33.0818 18.6547 38.3494 18.6547 43.6432C18.6547 44.2459 18.6547 44.2722 17.9645 44.4032C17.7256 44.4556 17.5928 44.5604 17.5928 44.7963C17.5928 45.0846 17.5928 45.3728 17.5928 45.6873C17.5928 45.9494 17.7521 46.0542 17.991 46.0542C18.1238 46.0542 18.2565 46.0542 18.3627 46.0542C18.7875 46.028 19.2388 46.159 19.6104 45.9756C19.9821 45.7659 19.9024 45.2942 20.0352 44.9535C20.8581 42.9618 22.7164 41.7039 24.8668 41.7039C27.0171 41.7039 28.955 42.9618 29.7514 44.9273C29.8842 45.268 29.9904 45.6349 30.1231 45.9756C30.4682 46.1328 30.8133 46.0804 31.1584 46.0804C34.9016 46.0804 38.6447 46.0804 42.3613 46.0804C42.7065 46.0804 43.0516 46.159 43.3701 46.0018C43.7153 45.8184 43.6091 45.399 43.7418 45.1108C44.8037 42.3853 47.777 41.0225 50.5113 42.0446C52.0245 42.6211 53.0599 43.6694 53.5908 45.1894C53.9094 46.1066 53.9359 46.0804 54.8916 46.1066C54.9713 46.1066 55.0509 46.1066 55.1571 46.1066C56.2986 46.1066 56.2986 46.0804 56.2455 45.0059C56.2455 44.639 56.0862 44.4556 55.7146 44.4818C55.3429 44.4818 55.1571 44.3246 55.1571 43.9577C55.1571 43.6956 55.1571 43.4597 55.1571 43.1977C55.1571 40.8915 55.1571 38.5853 55.1571 36.2791C55.1571 35.9384 55.1571 35.5977 55.1305 35.2832C55.1305 35.0736 54.9978 34.9949 54.812 34.9687C54.4669 34.9425 54.1217 34.9425 53.8032 34.9425C50.7768 34.9425 47.777 34.9425 44.7506 34.9425C43.5294 34.9425 43.4763 35.0998 43.556 33.7108C43.556 33.6322 43.6356 33.5798 43.7418 33.4487C44.4055 33.4487 45.1223 33.4487 45.839 33.4487C46.5558 33.4487 47.2726 33.4487 48.0159 33.4487C48.7858 33.4487 49.5556 33.4487 50.299 33.4487C51.0157 33.4487 51.706 33.4749 52.5289 33.3963C51.5998 30.8543 50.591 28.5218 49.6087 26.1632ZM45.839 24.5122C45.4674 22.5205 45.4674 22.5205 43.556 22.5205C43.4763 22.5205 43.3967 22.5205 43.2905 22.5205C41.5649 22.5467 42.0428 22.337 41.3526 23.8832C41.0871 24.486 41.1667 24.617 41.8039 24.617C42.9985 24.617 44.1666 24.617 45.3612 24.617C45.547 24.617 45.7063 24.6432 45.839 24.5122Z" fill="#B1104E"/>
<path d="M44.0601 49.3561C44.2724 49.1989 44.3786 49.0941 44.4848 49.0417C45.2547 48.6224 45.2547 48.6224 45.9184 49.2775C47.5377 50.981 50.0066 50.8237 51.4136 49.2513C51.5729 49.0679 51.7322 48.8844 51.8915 48.7272C52.157 48.701 52.3428 48.8058 52.5286 48.9368C52.741 49.0679 53.0065 49.1465 53.1657 49.461C52.21 51.0596 50.7499 51.9506 48.8386 52.003C46.7679 52.0817 45.2016 51.1644 44.0601 49.3561Z" fill="#B1104E"/>
<path d="M21.5748 48.5962C21.8403 48.9107 22.0261 49.1203 22.2385 49.33C23.7517 50.85 26.0082 50.8762 27.548 49.3824C27.6276 49.3038 27.7072 49.1989 27.7869 49.0941C28.2116 48.6224 28.2116 48.6224 28.716 48.9107C28.8753 48.9893 29.008 49.0679 29.1408 49.1727C29.3532 49.3038 29.3797 49.4872 29.247 49.6969C28.6629 50.5617 27.9196 51.1907 26.9374 51.5838C24.5747 52.5796 21.8138 51.741 20.4864 49.6445C20.3537 49.4348 20.3802 49.2514 20.5926 49.1203C20.9112 48.9369 21.2032 48.8058 21.5748 48.5962Z" fill="#B1104E"/>
<path d="M44.9897 38.2183C44.6977 38.2183 44.4057 38.2183 44.1136 38.2183C43.6092 38.1921 43.5562 38.1659 43.5562 37.6156C43.5562 37.4583 43.5562 37.2749 43.5562 37.1176C43.5827 36.8818 43.6889 36.7245 43.9544 36.7245C44.5384 36.7245 45.149 36.6983 45.733 36.7245C46.6091 36.7245 46.6356 36.777 46.6356 37.6418C46.6356 38.1397 46.556 38.1921 46.0516 38.2183C45.6799 38.2445 45.3348 38.2183 44.9897 38.2183Z" fill="#B1104E"/>
</svg>
