<svg width="72" height="73" viewBox="0 0 72 73" fill="none" xmlns="http://www.w3.org/2000/svg">
<circle cx="36" cy="36.9839" r="35" stroke="#B1104E" stroke-width="2"/>
<path d="M43.4608 31.0794C43.2005 24.4539 37.2142 18.8608 30.7074 18.8608C24.027 18.8608 17.8672 24.712 17.8672 31.5957C17.8672 41.319 27.4973 43.5562 30.7074 54.1399C32.0087 49.7515 34.438 46.826 36.7804 44.1585" stroke="#B1104E" stroke-width="2" stroke-miterlimit="10" stroke-linejoin="round"/>
<path d="M30.7072 35.726C33.055 35.726 34.9583 33.8383 34.9583 31.5097C34.9583 29.1811 33.055 27.2935 30.7072 27.2935C28.3594 27.2935 26.4561 29.1811 26.4561 31.5097C26.4561 33.8383 28.3594 35.726 30.7072 35.726Z" stroke="#B1104E" stroke-width="2" stroke-miterlimit="10" stroke-linejoin="round"/>
<path d="M46.3238 54.3119C48.3193 47.8584 54.1321 46.4817 54.1321 40.5445C54.1321 36.4142 50.4015 32.8003 46.3238 32.8003C42.2462 32.8003 38.5156 36.4142 38.5156 40.5445C38.5156 46.4817 44.3284 47.8584 46.3238 54.3119Z" stroke="#B1104E" stroke-width="2" stroke-miterlimit="10" stroke-linejoin="round"/>
<path d="M46.3234 43.1262C47.7609 43.1262 48.9262 41.9704 48.9262 40.5448C48.9262 39.1191 47.7609 37.9634 46.3234 37.9634C44.886 37.9634 43.7207 39.1191 43.7207 40.5448C43.7207 41.9704 44.886 43.1262 46.3234 43.1262Z" stroke="#B1104E" stroke-width="2" stroke-miterlimit="10" stroke-linejoin="round"/>
</svg>
